<svg xmlns="http://www.w3.org/2000/svg" xmlns:xlink="http://www.w3.org/1999/xlink" width="107.831" height="107.832" viewBox="0 0 107.831 107.832">
  <defs>
    <clipPath id="clip-path">
      <path id="Clip_2" data-name="Clip 2" d="M0,53.916a53.916,53.916,0,0,0,53.916,53.916h0a53.916,53.916,0,0,0,53.916-53.916h0A53.915,53.915,0,0,0,53.916,0h0A53.916,53.916,0,0,0,0,53.916" transform="translate(0.147 0.147)" fill="none"/>
    </clipPath>
  </defs>
  <g id="Group_76" data-name="Group 76" transform="translate(-0.147 -0.147)">
    <path id="Clip_2-2" data-name="Clip 2" d="M0,53.916a53.916,53.916,0,0,0,53.916,53.916h0a53.916,53.916,0,0,0,53.916-53.916h0A53.915,53.915,0,0,0,53.916,0h0A53.916,53.916,0,0,0,0,53.916" transform="translate(0.147 0.147)" fill="none"/>
    <g id="Group_76-2" data-name="Group 76" clip-path="url(#clip-path)">
      <path id="Fill_1" data-name="Fill 1" d="M148.057,74.029A74.029,74.029,0,1,1,74.029,0a74.029,74.029,0,0,1,74.029,74.029" transform="translate(-17.97 -13.795)" fill="#e4e5f7"/>
    </g>
    <path id="Clip_5-2" data-name="Clip 5" d="M0,53.916a53.916,53.916,0,0,0,53.916,53.916h0a53.916,53.916,0,0,0,53.916-53.916h0A53.915,53.915,0,0,0,53.916,0h0A53.916,53.916,0,0,0,0,53.916" transform="translate(0.147 0.147)" fill="none"/>
    <g id="Group_76-3" data-name="Group 76" clip-path="url(#clip-path)">
      <path id="Fill_4" data-name="Fill 4" d="M53.08,31.273c-.207.005-.416.011-.623.018q-.858.022-1.715.047L12.827,32.391q-.082-.915-.162-1.83l-.523,1.817L0,31.04c.744-3.231,1.487-8.29,2.229-11.521q1.176-5.527,2.353-11.05a7.578,7.578,0,0,1,3.7-4.387,5.764,5.764,0,0,1,4.2-.5c.82.276.831.572,1.568.877,1.285.532,5.515-.938,5.515-.938,1.24-.5,2.837-1.193,4.661-2.131L34.263.871c-.7,2.63-1.289,4.474-1.289,4.474q-.43,1.35-.911,2.806c.163.047.332.095.5.136a12.054,12.054,0,0,0,2.091.332A76.754,76.754,0,0,0,36.273.766l3.93-.2q.708-.038,1.417-.072Q46.38.244,51.14,0q.446,6.8.9,13.593.139,2.121.28,4.244l.022.34c.247,3.755.5,9.341.742,13.1" transform="translate(23.11 77.069)" fill="#262c7c"/>
      <path id="Fill_7" data-name="Fill 7" d="M11.53.612C11.1,2.9,10.542,5.168,10.045,7.039c-.7,2.63-1.289,4.474-1.289,4.474q-.43,1.35-.911,2.806A13.288,13.288,0,0,1,0,7.556s0-.006,0-.009L3.235,0l8.3.612" transform="translate(47.328 70.901)" fill="#e4e5f7"/>
      <path id="Fill_10" data-name="Fill 10" d="M.065,0A6.131,6.131,0,0,0,5.277,6.982a6.139,6.139,0,0,0,6.687-6L.065,0" transform="translate(48.629 71.392)" fill="#9195cb"/>
      <path id="Fill_13" data-name="Fill 13" d="M46.452,23.226A23.226,23.226,0,1,1,23.226,0,23.226,23.226,0,0,1,46.452,23.226" transform="translate(34.825 28.294)" fill="#bec1e0"/>
      <path id="Fill_16" data-name="Fill 16" d="M7.447.387q-.24,2.788-.483,5.578l-.6,6.91A13.1,13.1,0,0,1,2.4,14.024a12.488,12.488,0,0,1-2.4.069A76.748,76.748,0,0,0,1.617,6.239c.249-1.683.434-3.391.528-5.1.022-.4.044-.777.064-1.144L6.565.321Z" transform="translate(57.767 71.596)" fill="#ffd6b0"/>
      <path id="Fill_19" data-name="Fill 19" d="M37.254,31.919a13.327,13.327,0,0,1-1.447,3.274,19.057,19.057,0,0,1-1.447,1.358l-.065.054c.043.176.085.354.129.53a10.078,10.078,0,0,1-5.563,3.621,8.333,8.333,0,0,1-3.774-.209c-.054-.015-.107-.027-.16-.044-.577-.152-1.138-.334-1.686-.5-.314-.1-.624-.189-.933-.269a.046.046,0,0,0-.013,0,5.2,5.2,0,0,0-4.055.283c-1.436.786-1.133,1.537-4.01,5.2-2.726,3.467-4.088,5.2-5.866,5.494C4.378,51.366.414,44.634,0,43.915c1.913-4.939,3.5-9.442,4.812-13.392.163.047.332.094.5.136a12.054,12.054,0,0,0,2.091.332,76.758,76.758,0,0,0,1.617-7.854c.249-1.683.434-3.391.528-5.1.022-.4.044-.777.064-1.144A49.527,49.527,0,0,0,9.551,7.54C9.083,3.57,8.277,1.41,8.451.163A.788.788,0,0,1,8.941,0C13.169-.2,36.97,15.674,37.586,28.79v0a10.063,10.063,0,0,1-.332,3.127" transform="translate(50.361 54.697)" fill="#e4e5f7"/>
      <path id="Fill_22" data-name="Fill 22" d="M23.671,48.008c2.342,8.017,8.579,14.393,5.865,18.92a6.829,6.829,0,0,1-3.316,2.636c-5.051,2.427-10.231,1.815-12.412,1.53A30.6,30.6,0,0,1,1.735,66.758c-4.421-25.6-.072-47.27,9.387-56.755A36.88,36.88,0,0,1,25.728.938,36.638,36.638,0,0,1,40.211.512h0c5.605,1.661,10.2,5.535,13.653,10.252,1.256,1.715,4.464,5.974,6.794,15.306,4.388,17.58,1.848,36.818-1.458,37.148-.412.041-1.075-.188-2.018-1.743l-2.308-31.44a53.611,53.611,0,0,0-6.056-1.028,89.179,89.179,0,0,0-10.261-.287,35.143,35.143,0,0,1-12.587-2.833c-4.233,10.158-3.7,17.335-2.3,22.121" transform="translate(19.911 11.008)" fill="#262c7c"/>
      <path id="Stroke_25" data-name="Stroke 25" d="M.9,0a6.741,6.741,0,0,0,.207,7.088A6.058,6.058,0,0,0,4.135,9.221" transform="translate(58.428 48.995)" fill="none" stroke="#262c7c" stroke-linecap="round" stroke-linejoin="round" stroke-miterlimit="10" stroke-width="1.4"/>
      <path id="Fill_28" data-name="Fill 28" d="M14.512,32.264,2.456,32.6l-.9-13.14-.025-.3-.347-4.351L0,0Q3.335.1,7.237.291,8.952,7.4,10.669,14.514q.128.523.252,1.046c.043.176.085.354.129.53,1.152,4.781,2.307,11.393,3.461,16.174" transform="translate(73.735 75.744)" fill="#e4e5f7"/>
      <path id="Fill_31" data-name="Fill 31" d="M34.524,30.12a9.294,9.294,0,0,1-2.755,5.6,19.048,19.048,0,0,1-1.447,1.358l-.065.055a14.864,14.864,0,0,1-9.23,3.6c-.054,0-.109,0-.163,0a8.708,8.708,0,0,1-1.661-.2,7.9,7.9,0,0,1-.933-.269l-.013,0c-.136-.051-.272-.1-.4-.162-1.679-.723-2.22-1.71-3.676-1.576-1.7.158-2.164,1.621-4.988,4.07-2.222,1.926-4.071,3.53-5.906,3.151C2.841,45.65,1.218,45.2,0,42.066A103.508,103.508,0,0,0,3.367,31.518a76.754,76.754,0,0,0,1.617-7.854c.249-1.683.434-3.391.528-5.1.022-.4.044-.777.064-1.143a49.527,49.527,0,0,0-.064-9.359C5.044,4.1,4.238,1.937,4.413.69A1.446,1.446,0,0,1,4.672,0c.024.053.045.105.071.16s.053.12.08.183L4.9.528c.109.252.227.524.352.826l.054.131c.018.044.038.089.056.134.056.135.113.274.172.419q.12.289.245.61c.058.145.116.294.178.448.118.3.24.616.367.951.047.129.1.258.147.392.033.089.067.18.1.272.12.318.241.653.367,1,1.882,5.24,2.823,7.861,2.97,10.257a17.913,17.913,0,0,1,.018,1.844c0,.071-.005.141-.009.212s-.005.114-.009.172c-.005.094-.013.187-.02.281-.016.234-.038.468-.064.7a.138.138,0,0,1,0,.029c-.025.218-.053.436-.085.652-.02.143-.042.287-.067.429-.015.1-.031.19-.049.285-.038.214-.08.427-.125.639-.024.114-.049.229-.074.343-.118.523-.254,1.04-.4,1.556-.033.116-.069.233-.1.349s-.069.225-.105.338c-.1.332-.214.662-.33.995-.045.131-.093.263-.14.4q-.272.754-.572,1.514c-.107.272-.216.543-.327.817s-.234.572-.352.858q-.166.395-.332.792-.174.417-.354.839-.4.95-.788,1.777c-.1.214-.2.423-.294.624-.047.1-.094.2-.143.3l-.281.577q-.082.169-.163.332c-.082.161-.16.318-.236.47-.02.04-.038.078-.058.116q-.163.319-.31.61l-.341.675c-.065.131-.129.256-.189.378l-.033.067c-.034.071-.069.14-.1.207-.1.205-.187.394-.263.572-.02.042-.036.082-.053.122-.064.151-.116.29-.162.419-.011.031-.02.06-.029.089s-.02.064-.027.093-.024.082-.033.12-.018.078-.025.114a.788.788,0,0,0-.015.082.912.912,0,0,0-.015.118c0,.038-.005.074-.005.111a.729.729,0,0,0,.189.526C4.189,39.738,8.164,35.07,14.634,35c.207,0,.41,0,.608.009.076,0,.152.005.227.009a11.887,11.887,0,0,1,1.185.122c.073.011.145.022.216.034l.183.033c.08.015.162.031.24.047s.138.029.205.045c.047.009.093.02.138.032a12.425,12.425,0,0,1,1.6.5c.091.034.18.071.269.105.249.1.488.2.721.31l.223.1c.024.013.047.022.069.032.3.143.594.289.877.43l.158.08c.327.165.644.327.957.476.087.042.174.083.261.123.3.138.594.263.889.37.049.018.1.036.149.053a6.216,6.216,0,0,0,.746.211c.049.011.1.022.151.031.111.022.223.04.336.053.093.011.187.02.28.025.038,0,.078.006.118.007a4.91,4.91,0,0,0,1.343-.133c.129-.031.254-.065.379-.1.054-.018.111-.036.165-.056s.116-.042.172-.063.118-.047.176-.073.114-.049.171-.076c.1-.047.2-.1.3-.152a6.536,6.536,0,0,0,1.131-.786c.042-.036.083-.072.125-.111a8.132,8.132,0,0,0,.6-.6s0,0,0-.005c.06-.066.12-.133.178-.2a11.989,11.989,0,0,0,1.149-1.606c.053-.087.105-.174.156-.263.022-.035.042-.069.06-.1.053-.091.1-.185.154-.278s.1-.183.147-.274.081-.154.122-.234q.25-.49.476-1c.053-.116.1-.233.154-.35.18-.414.349-.837.51-1.262.055-.142.107-.283.16-.425.094-.256.185-.51.274-.766v0c.209-.6.4-1.2.59-1.78a5.71,5.71,0,0,1,.387,2.585" transform="translate(54.4 54.171)" fill="#c50558"/>
      <path id="Fill_34" data-name="Fill 34" d="M34.967,17.12c.111,2.9-3.83,3.774-4.6,7.09-.4,1.722.4,2.632.928,3.979-1.412,4.451-3.391,9.633-7.357,10.571-3.917.928-6.043-3.167-12.147-3.1C5.326,35.723,1.35,40.392.189,39.165c-.81-.857,1.109-3.149,3.374-8.5,2.008-4.747,3.815-9.021,3.509-14.036-.147-2.4-1.087-5.017-2.97-10.257C3.095,3.561,2.345,1.817,1.833.653a1.2,1.2,0,0,1,.183-.2C3.957-1.3,10.2,2.461,13.831,4.65a115.565,115.565,0,0,1,10.513,6.974,15.148,15.148,0,0,0,4.583,2.608,14.71,14.71,0,0,0,5.251.788,3.876,3.876,0,0,1,.788,2.1" transform="translate(57.239 53.518)" fill="#eb0065"/>
      <path id="Fill_37" data-name="Fill 37" d="M.016.047c-.363.5,5.643,4.68,13.362,12.645a131.238,131.238,0,0,1,10.1,11.733q-.065-1.369-.13-2.738l1.76-2.542A86.962,86.962,0,0,0,13.638,8.39C7.174,3.346.388-.47.016.047" transform="translate(62.362 55.68)" fill="#fd99c4"/>
      <path id="Fill_40" data-name="Fill 40" d="M0,0A15.077,15.077,0,0,1,1.879,3.058c.352.767,1.647,3.758,1.1,10.782A49.728,49.728,0,0,1,1.24,23.485a4.265,4.265,0,0,1,2.607-1.043,4.6,4.6,0,0,1,3.65,1.89c-.429-4.352-1.092-9.157-2.1-14.221C4.813,7.2,4.066,3.951,1.4,1.234A12.62,12.62,0,0,0,0,0" transform="translate(66.157 65.027)" fill="#fd99c4"/>
      <path id="Stroke_43" data-name="Stroke 43" d="M0,3.347a5.865,5.865,0,0,1,5.355-1.2A7.514,7.514,0,0,0,2.544.4,7.454,7.454,0,0,0,.134,0" transform="translate(48.558 47.159)" fill="none" stroke="#262c7c" stroke-linecap="round" stroke-linejoin="round" stroke-miterlimit="10" stroke-width="1.4"/>
      <path id="Stroke_46" data-name="Stroke 46" d="M5.488,0Q4.382.362,3.213.8C2.073,1.235,1,1.686,0,2.142a14.991,14.991,0,0,1,3.213.8A14.965,14.965,0,0,1,5.488,4.016" transform="translate(63.953 46.356)" fill="none" stroke="#262c7c" stroke-linecap="round" stroke-linejoin="round" stroke-miterlimit="10" stroke-width="1.4"/>
      <path id="Fill_49" data-name="Fill 49" d="M7.433,2.572a5.418,5.418,0,0,1-2.654.688A5.448,5.448,0,0,1,0,.434,6.047,6.047,0,0,1,4.187.312a6.144,6.144,0,0,1,3.245,2.26" transform="translate(51.312 61.167)" fill="#e4e5f7"/>
      <path id="Fill_52" data-name="Fill 52" d="M9.918,4.946c-.608,1.959-3.293,2.868-6,2.029S-.485,3.868.123,1.908A3.159,3.159,0,0,1,1.933,0,5.448,5.448,0,0,0,6.712,2.826a5.419,5.419,0,0,0,2.654-.688,3.229,3.229,0,0,1,.552,2.808" transform="translate(49.379 61.6)" fill="#131856"/>
      <path id="Stroke_55" data-name="Stroke 55" d="M0,.162A7.842,7.842,0,0,1,4.024.389,7.859,7.859,0,0,1,7.594,2.826" transform="translate(47.349 44.298)" fill="none" stroke="#262c7c" stroke-linecap="round" stroke-linejoin="round" stroke-miterlimit="10" stroke-width="1.4"/>
      <path id="Stroke_58" data-name="Stroke 58" d="M0,2.1A8.473,8.473,0,0,1,7.311.174" transform="translate(62.651 43.946)" fill="none" stroke="#262c7c" stroke-linecap="round" stroke-linejoin="round" stroke-miterlimit="10" stroke-width="1.4"/>
      <path id="Fill_61" data-name="Fill 61" d="M1.369,24.45A21.7,21.7,0,0,1,8.018,0,41.335,41.335,0,0,0,1.369,24.45" transform="translate(29.051 21.024)" fill="#8591ff"/>
      <path id="Fill_64" data-name="Fill 64" d="M1.863,14.755A29.93,29.93,0,0,1,.318,0L1.371.632q-.062,2.71,0,5.621c.069,2.988.244,5.827.492,8.5" transform="translate(42.137 14.355)" fill="#8591ff"/>
      <path id="Fill_67" data-name="Fill 67" d="M3.623,13.352q-.858.022-1.715.047C1.472,11.735,1.073,8.1.742,6.164.367,3.963.134,1.9,0,0A27.641,27.641,0,0,0,2.153,8.021a51.078,51.078,0,0,1,1.47,5.331" transform="translate(71.945 95.008)" fill="#6468a1"/>
      <path id="Fill_70" data-name="Fill 70" d="M3.462,0Q2.6,2.8,1.778,5.749C1.132,8.073.541,12.178,0,14.4l.523-1.817.162,1.829,3.691-.1c.077-1.88.067-5.814-.1-8.1A54.994,54.994,0,0,0,3.462,0" transform="translate(35.254 95.048)" fill="#6468a1"/>
      <g id="Group_75" data-name="Group 75" transform="translate(55 54.125)">
        <path id="Fill_73" data-name="Fill 73" d="M4.8,16.735c-.02.367-.042.746-.064,1.144-.094,1.7-.28,3.412-.528,5.1a76.758,76.758,0,0,1-1.617,7.854A12.054,12.054,0,0,1,.5,30.5c-.171-.042-.339-.089-.5-.136q.479-1.454.911-2.806S1.5,25.709,2.2,23.079c.5-1.871,1.051-4.14,1.485-6.427.712-3.743,1.109-7.533.434-9.7a15.559,15.559,0,0,1-.635-3.091C3.333,2.391,3.133.456,3.639,0c-.174,1.247.632,3.407,1.1,7.376A49.528,49.528,0,0,1,4.8,16.735" transform="translate(0.173 0.736)" fill="#e4e5f7"/>
      </g>
    </g>
  </g>
</svg>
