<svg xmlns="http://www.w3.org/2000/svg" width="471" height="450" viewBox="0 0 471 450">
  <g id="emo" transform="translate(-1 -3.5)">
    <path id="Fill_1" data-name="Fill 1" d="M35.95,2.4q-1.1-.516-2.238-.924C32.954,1.207,32.183.97,31.4.772c-.341-.087-.686-.164-1.028-.236C30.3.519,30.229.5,30.153.489,29.812.42,29.468.356,29.123.3,29.095.3,29.064.292,29.036.288Q28.527.212,28.021.154L27.888.137C27.525.1,27.159.067,26.794.044l-.064,0Q25.587-.024,24.453.016a.092.092,0,0,0-.023,0,21.454,21.454,0,0,0-5.757,1l-.055.017q-.386.125-.767.266l-.078.028A19.466,19.466,0,0,0,15.4,2.41c-.04.021-.08.043-.119.066-.2.113-.411.231-.612.351l-.18.108q-.281.173-.557.357l-.172.113c-.212.145-.422.295-.631.45l-.066.047q-.347.261-.684.54c-.045.038-.087.076-.133.113-.172.145-.343.295-.513.448-.07.064-.138.128-.206.195-.146.134-.286.27-.426.41-.072.072-.144.144-.216.217-.142.145-.28.295-.417.446-.061.068-.123.136-.186.2-.2.221-.388.448-.574.68-3.2,3.981-3.2,8.191-2.144,12.418.089.351.182.7.284,1.056.121.419.252.837.388,1.255q.312.958.659,1.914a35.94,35.94,0,0,1,2.238,6.513c.051.234.1.467.148.7.134.7.239,1.389.3,2.075.023.229.04.457.053.686a17.719,17.719,0,0,1-.108,3.4,17.145,17.145,0,0,1-.792,3.375q-.233.677-.526,1.355a22.666,22.666,0,0,1-2.348,4.106q-.381.536-.782,1.058C5.211,49.5,3.058,51.727,1.013,54.017a4.507,4.507,0,0,0-.636.9,3.271,3.271,0,0,0-.22.487.017.017,0,0,1,0,.009,2.81,2.81,0,0,0-.095.344L.055,55.8a2.562,2.562,0,0,0-.045.317v.017a3.4,3.4,0,0,0,.027.731,4.6,4.6,0,0,0,.172.72v0c.04.123.085.246.134.372s.108.257.169.391c.134.287.278.574.428.862s.307.573.472.856q.494.853,1.074,1.68t1.238,1.595c.22.259.447.51.678.756a19.222,19.222,0,0,0,1.462,1.4q.574.49,1.187.928c.273.193.549.378.831.552q.21.13.426.255c.2.113.4.221.606.323.182.094.367.183.555.268.252.115.509.221.769.319a11.9,11.9,0,0,0,1.737.51,12.908,12.908,0,0,0,5.244.128c.153-.034.309-.074.458-.119s.288-.089.428-.14c.07-.026.138-.053.208-.081a5.3,5.3,0,0,0,.792-.408,4.526,4.526,0,0,0,.593-.444q.151-.133.29-.283a3.925,3.925,0,0,0,.386-.489,4.525,4.525,0,0,0,.574-1.226c.8-2.657-.028-5.489.244-8.2.013-.13.027-.259.044-.389.044-.306.091-.608.146-.909q.236-1.355.587-2.643a29.014,29.014,0,0,1,1.562-4.741q.281-.655.595-1.3a30.107,30.107,0,0,1,1.744-3.106,30.807,30.807,0,0,1,8.94-9.068C40.158,31.653,48.889,29.686,49,22.11,49.138,13.65,43.6,5.685,35.95,2.4" transform="translate(284 32.5)" fill="rgba(255,255,255,0.14)"/>
    <path id="Fill_7" data-name="Fill 7" d="M41.019,48.8A12.358,12.358,0,0,1,43.383,53c4.533-3.406,6.635-6.854,6.612-12.8a2.21,2.21,0,0,0-1.083-1.943,8.814,8.814,0,0,0-2.359-1.112c-.444-.218-.874-.428-1.258-.628a13.916,13.916,0,0,1-1.19-.835c-.345-.231-.68-.462-1.009-.691s-.649-.458-.958-.686c-3.141-2.208-3.95-6.007-4.219-9.131-.434-7.159-.192-14.859-3.908-20.225C28.169-3.437,14.842.012,7.332,6.589A25.555,25.555,0,0,0,.739,14.9a21.069,21.069,0,0,0,1.77,15.57C5.2,35.409,9.464,37.2,14.2,37.927a47.787,47.787,0,0,0,4.847.447c5.41-.105,10.054.546,14.019,2.644.442.233.872.483,1.3.753a16.35,16.35,0,0,1,3.644,3.079c.558.613,1.093,1.266,1.6,1.937s.977,1.345,1.414,2.013" transform="translate(54 82.5)" fill="#df6300"/>
    <path id="Fill_9" data-name="Fill 9" d="M4.982,17C2.143,15.475.736,12.218.1,9.267-.491,5.154,1.482-1.331,6.49.241c4.56,1.323,4.227,6.936,4.5,10.991.184,2.7-2.383,5.075-5.227,5.62-.252.05-.511.1-.783.148" transform="translate(60 93.5)" fill="#f6f8f6"/>
    <path id="Fill_11" data-name="Fill 11" d="M63.473,13.084c-.357-.724-.752-1.43-1.176-2.117s-.881-1.35-1.368-1.99c-.213-.28-.433-.554-.657-.825-.047-.059-.095-.117-.146-.176-.224-.267-.454-.531-.691-.789l-.059-.064c-.234-.252-.469-.5-.712-.738-.032-.032-.061-.064-.095-.095q-.39-.386-.8-.753l-.047-.045q-.855-.763-1.772-1.436a.1.1,0,0,0-.017-.013,21.544,21.544,0,0,0-5.141-2.8.439.439,0,0,0-.053-.019c-.255-.1-.511-.185-.767-.27L49.893.928A19.148,19.148,0,0,0,47.35.293C47.3.283,47.259.278,47.213.27c-.232-.04-.465-.076-.7-.106-.068-.009-.137-.019-.207-.026-.218-.026-.441-.049-.661-.068-.068-.006-.137-.013-.205-.017-.258-.019-.517-.034-.775-.042-.028,0-.057,0-.082,0C44.29,0,44,0,43.707,0c-.059,0-.118.006-.175.006-.228.008-.454.017-.684.032-.095.006-.19.015-.287.023-.194.015-.391.034-.587.057-.1.011-.205.023-.306.036-.2.026-.4.057-.608.089-.091.015-.182.028-.273.045C40.5.342,40.2.4,39.912.465c-5,1.124-7.643,4.418-9.462,8.385q-.228.5-.439,1c-.167.4-.327.811-.482,1.224q-.356.942-.682,1.908a35.572,35.572,0,0,1-2.327,6.491c-.106.216-.211.427-.323.639-.33.63-.682,1.235-1.062,1.814-.125.193-.253.384-.386.571A17.858,17.858,0,0,1,22.535,25.1,17.229,17.229,0,0,1,19.8,27.244q-.607.383-1.261.732a22.766,22.766,0,0,1-4.412,1.751q-.638.182-1.278.34c-2.993.747-6.076,1.146-9.117,1.666a4.591,4.591,0,0,0-1.064.308,3.639,3.639,0,0,0-.477.246l-.008.006a3.212,3.212,0,0,0-.289.21.259.259,0,0,0-.032.032c-.082.07-.161.142-.236.219l-.011.015a3.26,3.26,0,0,0-.435.588,0,0,0,0,1,0,0,4.46,4.46,0,0,0-.315.67,0,0,0,0,0,0,0c-.044.121-.087.244-.127.373s-.076.27-.112.412c-.074.31-.142.622-.205.94S.3,36.4.249,36.722c-.1.651-.167,1.313-.207,1.982s-.053,1.347-.03,2.022c.011.337.03.675.057,1.012a18.633,18.633,0,0,0,.274,2q.142.743.348,1.466c.093.32.194.637.306.949.057.155.114.31.175.463.085.214.177.424.272.632.085.187.175.373.268.554.127.248.262.492.4.73a11.791,11.791,0,0,0,1.041,1.479,12.947,12.947,0,0,0,4.034,3.367c.142.068.289.132.433.191s.283.11.425.157c.07.023.142.045.213.064a5.078,5.078,0,0,0,.877.176,4.217,4.217,0,0,0,.741.021,3.686,3.686,0,0,0,.408-.042,3.8,3.8,0,0,0,.606-.142,4.553,4.553,0,0,0,1.221-.6c2.289-1.583,3.417-4.314,5.326-6.264.093-.093.182-.187.279-.276q.336-.318.684-.622,1.034-.911,2.118-1.7a29.154,29.154,0,0,1,4.2-2.735q.63-.338,1.278-.645a29.994,29.994,0,0,1,3.314-1.347A31.033,31.033,0,0,1,42,38.082c6.446.518,14.528,4.416,19.362-1.449a21.612,21.612,0,0,0,2.114-23.548" transform="translate(376 139.5)" fill="rgba(255,255,255,0.14)"/>
    <path id="Fill_15" data-name="Fill 15" d="M16.146,1.674c-.811.3-1.607.632-2.382,1s-1.536.778-2.271,1.218c-.322.193-.639.395-.951.6l-.2.132c-.309.208-.618.421-.917.64-.027.019-.05.038-.075.057-.293.215-.581.438-.863.664-.038.028-.075.059-.111.089-.3.244-.6.5-.89.753-.017.017-.035.034-.052.049-.6.538-1.18,1.1-1.723,1.7a.123.123,0,0,0-.015.017,22.6,22.6,0,0,0-3.545,5.076l-.029.053q-.19.385-.368.776c-.012.026-.025.053-.035.079a19.772,19.772,0,0,0-.953,2.59c-.012.045-.025.091-.036.138-.069.238-.13.479-.19.721-.017.072-.035.143-.05.213-.052.228-.1.457-.144.685-.013.072-.029.142-.042.213-.048.268-.09.536-.127.806,0,.028-.01.057-.013.085-.04.3-.073.608-.1.916-.006.06-.008.121-.013.181-.015.238-.029.478-.038.719,0,.1-.006.2-.008.3,0,.206-.006.413,0,.621,0,.108,0,.217.006.325.006.213.017.429.031.644,0,.1.008.193.015.289.023.311.054.621.092.934.66,5.348,3.888,8.459,7.922,10.782q.506.292,1.024.566c.41.219.831.429,1.255.634.643.315,1.3.621,1.96.917a38.728,38.728,0,0,1,6.673,3.122c.217.134.432.268.645.406.637.412,1.245.844,1.822,1.3.19.151.38.308.566.464a18.985,18.985,0,0,1,2.526,2.59,18.124,18.124,0,0,1,2,3.092q.342.674.645,1.395a23.5,23.5,0,0,1,1.393,4.8c.082.457.159.914.226,1.372.472,3.209.568,6.473.792,9.7a4.694,4.694,0,0,0,.215,1.144,3.578,3.578,0,0,0,.209.525l.006.009a3.377,3.377,0,0,0,.2.323.3.3,0,0,0,.029.04,2.831,2.831,0,0,0,.211.268.083.083,0,0,0,.012.013,3.481,3.481,0,0,0,.583.519h0a4.8,4.8,0,0,0,.681.4h0c.123.06.251.119.384.172s.28.111.428.162c.322.111.648.217.982.315s.668.191,1.009.276c.683.172,1.383.317,2.093.43s1.429.2,2.152.247c.361.023.723.04,1.086.047a20.7,20.7,0,0,0,2.166-.072c.539-.047,1.074-.115,1.6-.208.353-.064.7-.136,1.045-.219.173-.042.345-.087.516-.134.236-.066.47-.14.7-.217.207-.068.414-.142.618-.219.28-.106.552-.221.823-.344a13.234,13.234,0,0,0,1.692-.931A13.751,13.751,0,0,0,53.054,64.8c.09-.142.173-.285.251-.43s.148-.283.213-.429c.033-.072.065-.143.092-.215a5.139,5.139,0,0,0,.284-.9,4.547,4.547,0,0,0,.1-.774,3.99,3.99,0,0,0,0-.429,4.038,4.038,0,0,0-.084-.651,4.686,4.686,0,0,0-.514-1.336C51.955,57.069,49.162,55.6,47.29,53.4c-.09-.106-.178-.21-.263-.321-.2-.257-.4-.517-.591-.78q-.863-1.178-1.588-2.4a30.076,30.076,0,0,1-2.465-4.676c-.2-.464-.382-.933-.552-1.4a32.377,32.377,0,0,1-1.078-3.607,31.967,31.967,0,0,1-.263-13.431c1.249-6.68,6.276-14.713.543-20.389C34.647.043,24.394-1.67,16.146,1.674" transform="translate(132 44.5)" fill="rgba(255,255,255,0.14)"/>
    <path id="Fill_17" data-name="Fill 17" d="M2.589,13.726c-.365.772-.7,1.562-.986,2.364s-.547,1.617-.761,2.44c-.093.36-.176.722-.255,1.086-.015.078-.032.155-.049.233q-.111.546-.2,1.092c0,.03-.008.063-.013.093-.059.356-.106.715-.148,1.073l-.017.14q-.065.577-.1,1.156c0,.023,0,.047,0,.07q-.074,1.206-.036,2.41a.078.078,0,0,1,0,.021A22.729,22.729,0,0,0,1.048,32c0,.019.011.038.017.057.087.273.182.544.28.813.009.027.021.053.028.082a20.308,20.308,0,0,0,1.135,2.521c.023.044.045.083.068.127.119.218.242.434.369.65.038.063.076.125.115.188.119.2.246.4.375.591.042.063.079.123.121.184.151.224.308.447.471.667.019.023.032.047.051.07.184.246.371.489.57.728.036.046.079.093.117.138.153.184.31.366.473.546l.2.222q.213.227.431.449c.076.078.153.154.231.229.153.152.31.3.469.444.074.066.144.133.218.2.233.209.469.413.715.61,4.2,3.4,8.657,3.422,13.136,2.322.373-.093.747-.191,1.12-.3.443-.125.887-.264,1.33-.4.676-.218,1.353-.447,2.027-.69a37.974,37.974,0,0,1,6.907-2.339q.369-.082.738-.154,1.11-.21,2.2-.315c.242-.021.484-.04.727-.053a18.838,18.838,0,0,1,3.6.127,18.4,18.4,0,0,1,3.571.855c.475.167.952.353,1.431.563a23.976,23.976,0,0,1,4.335,2.5c.377.271.751.55,1.118.834,2.574,1.989,4.92,4.275,7.335,6.45a4.724,4.724,0,0,0,.95.677,3.429,3.429,0,0,0,.515.233l.011,0a3.135,3.135,0,0,0,.363.1c.015,0,.032,0,.047.008a3.353,3.353,0,0,0,.337.049h.017a3.569,3.569,0,0,0,.776-.027,4.792,4.792,0,0,0,.763-.178h0c.129-.042.261-.089.394-.142s.272-.112.416-.176q.457-.21.912-.447c.3-.157.607-.324.91-.5.6-.345,1.2-.722,1.781-1.13s1.149-.84,1.694-1.3c.274-.231.543-.47.8-.713a20.018,20.018,0,0,0,1.485-1.543c.35-.4.679-.823.99-1.251.2-.286.4-.58.587-.878.093-.148.184-.3.272-.449.121-.21.235-.425.346-.639q.148-.29.284-.586.185-.4.343-.815a12.772,12.772,0,0,0,.549-1.833,13.706,13.706,0,0,0,.157-5.549c-.036-.163-.078-.326-.125-.485s-.093-.305-.148-.455c-.025-.074-.055-.146-.085-.218A5.236,5.236,0,0,0,72,31.833a4.907,4.907,0,0,0-.467-.628,3.879,3.879,0,0,0-.3-.309,4.24,4.24,0,0,0-.513-.411,4.776,4.776,0,0,0-1.3-.61c-2.808-.855-5.811.008-8.674-.294-.138-.015-.274-.028-.411-.049-.324-.045-.645-.1-.963-.155q-1.431-.256-2.8-.635a30.411,30.411,0,0,1-5.009-1.674c-.462-.2-.918-.411-1.372-.633a32.311,32.311,0,0,1-3.279-1.858,32.559,32.559,0,0,1-9.56-9.5C33.571,9.4,31.528.15,23.506,0,14.55-.18,6.1,5.642,2.589,13.726" transform="translate(29 156.5)" fill="rgba(255,255,255,0.14)"/>
    <path id="Fill_21" data-name="Fill 21" d="M2.645,41.972q.551,1.094,1.2,2.128c.432.689.9,1.357,1.392,2,.219.281.442.555.668.827l.149.176c.229.268.461.532.7.79.021.021.042.044.061.065q.354.376.722.739c.032.031.065.063.1.094q.4.387.811.754l.05.044q.863.763,1.79,1.433a.1.1,0,0,0,.017.013,21.465,21.465,0,0,0,5.184,2.78l.055.019c.255.094.514.182.773.264l.08.025a19.279,19.279,0,0,0,2.556.616l.135.021c.234.038.469.071.7.1.069.01.137.017.208.025.221.025.442.044.665.061.069.006.137.011.206.015.259.015.518.029.779.034l.082,0c.291.006.583,0,.876-.006.059,0,.118-.006.175-.01.227-.008.457-.021.686-.038.093-.008.19-.015.286-.025.2-.019.392-.04.59-.065.1-.011.2-.025.307-.04.2-.029.4-.061.606-.1.093-.017.183-.031.276-.048.289-.055.581-.117.876-.186,5-1.192,7.614-4.552,9.395-8.586q.223-.5.43-1.02c.164-.409.318-.825.47-1.244.23-.637.451-1.286.663-1.936a36.578,36.578,0,0,1,2.263-6.592c.1-.22.208-.436.316-.651.324-.641.67-1.257,1.046-1.847.122-.2.251-.39.381-.582a18.131,18.131,0,0,1,2.19-2.646,17.363,17.363,0,0,1,2.723-2.2c.4-.266.821-.517,1.255-.756a22.764,22.764,0,0,1,4.407-1.82c.423-.128.849-.247,1.278-.36,2.994-.785,6.079-1.225,9.123-1.781a4.583,4.583,0,0,0,1.061-.323,3.408,3.408,0,0,0,.476-.254l.008-.006a3,3,0,0,0,.289-.216c.01-.01.019-.021.032-.033a2.6,2.6,0,0,0,.232-.226.083.083,0,0,0,.011-.013,3.385,3.385,0,0,0,.43-.6h0a4.657,4.657,0,0,0,.309-.681s0,0,0,0c.044-.121.086-.247.122-.379s.076-.274.11-.417q.106-.471.194-.953c.059-.323.112-.649.156-.978.091-.658.154-1.33.189-2.007s.038-1.362.008-2.046c-.015-.341-.038-.683-.069-1.024a18.915,18.915,0,0,0-.3-2.024c-.1-.5-.223-.993-.366-1.479q-.143-.485-.316-.957c-.057-.157-.118-.314-.181-.469-.088-.214-.181-.427-.278-.635-.088-.188-.179-.373-.276-.559-.128-.247-.265-.492-.411-.733a12.086,12.086,0,0,0-1.059-1.487A13.027,13.027,0,0,0,58.647.6c-.143-.069-.289-.13-.434-.189S57.927.3,57.784.253L57.569.19a5.224,5.224,0,0,0-.882-.166A4.207,4.207,0,0,0,55.943.01c-.135.01-.27.023-.408.046a4.461,4.461,0,0,0-.608.149,4.536,4.536,0,0,0-1.215.626c-2.28,1.626-3.379,4.4-5.274,6.393-.091.1-.181.191-.276.283-.225.216-.449.429-.678.635C46.8,8.767,46.1,9.348,45.378,9.89A28.949,28.949,0,0,1,41.2,12.7q-.628.35-1.274.668a30.435,30.435,0,0,1-3.308,1.4,30.842,30.842,0,0,1-12.713,1.684C17.441,16,9.293,12.142,4.511,18.127-.841,24.794-1.389,34.6,2.645,41.972" transform="translate(44 302.5)" fill="rgba(255,255,255,0.14)"/>
    <path id="Fill_25" data-name="Fill 25" d="M67.606,35.839q.517-1.1.925-2.246c.274-.761.512-1.536.711-2.318.084-.342.161-.685.236-1.031.013-.074.031-.148.046-.222.067-.346.13-.689.186-1.035a.758.758,0,0,0,.011-.089c.054-.338.1-.678.134-1.018.006-.044.011-.087.015-.133.038-.365.069-.731.09-1.1,0-.023,0-.046,0-.068a22.683,22.683,0,0,0,.017-2.282c0-.006,0-.013,0-.021a21.3,21.3,0,0,0-1.035-5.769c-.006-.019-.013-.038-.019-.055-.084-.258-.174-.513-.272-.767-.01-.027-.019-.051-.031-.078a19.01,19.01,0,0,0-1.1-2.381c-.023-.04-.044-.08-.067-.12-.117-.205-.236-.41-.36-.613-.034-.059-.073-.118-.109-.177-.119-.19-.239-.374-.366-.558-.036-.059-.077-.116-.115-.173-.148-.213-.3-.422-.456-.63-.017-.021-.033-.044-.05-.065-.178-.234-.36-.461-.55-.685-.036-.044-.079-.087-.115-.131-.149-.173-.3-.344-.458-.513-.065-.07-.13-.139-.2-.209-.136-.142-.276-.285-.416-.423l-.222-.216c-.148-.141-.3-.279-.456-.416-.069-.063-.136-.125-.207-.186-.224-.194-.452-.385-.69-.573-4.05-3.19-8.316-3.177-12.6-2.1-.356.089-.715.186-1.071.289-.423.123-.845.256-1.27.393-.646.211-1.293.435-1.937.668a36.509,36.509,0,0,1-6.594,2.269c-.238.055-.473.1-.709.15q-1.06.211-2.1.315-.348.034-.7.057a18.138,18.138,0,0,1-3.445-.095,17.532,17.532,0,0,1-3.427-.782q-.687-.231-1.376-.522a22.925,22.925,0,0,1-4.171-2.337q-.546-.382-1.077-.78C19.731,5.2,17.466,3.048,15.135,1.005a4.7,4.7,0,0,0-.914-.634,3.419,3.419,0,0,0-.5-.216l-.01,0a2.864,2.864,0,0,0-.349-.093c-.013,0-.031,0-.046-.008A3.047,3.047,0,0,0,13,.008H12.98a3.352,3.352,0,0,0-.739.03,4.563,4.563,0,0,0-.73.175l0,0c-.125.04-.249.084-.377.135s-.261.108-.395.171c-.291.137-.58.281-.872.431s-.579.311-.868.477q-.862.5-1.7,1.084C6.746,2.9,6.206,3.32,5.686,3.76c-.261.222-.515.448-.764.682a19.016,19.016,0,0,0-1.41,1.474c-.33.385-.644.782-.935,1.192-.2.273-.383.553-.557.835-.088.142-.172.285-.257.429-.115.2-.222.4-.328.608-.094.184-.184.37-.268.556-.115.256-.222.513-.32.775a11.645,11.645,0,0,0-.512,1.741,12.817,12.817,0,0,0-.109,5.26c.036.156.077.308.123.458s.09.291.144.431c.025.07.054.139.084.207a5.053,5.053,0,0,0,.416.794,4.358,4.358,0,0,0,.452.591,3.8,3.8,0,0,0,.289.292,4.339,4.339,0,0,0,.5.384,4.559,4.559,0,0,0,1.245.57c2.7.79,5.567-.049,8.312.213.132.013.262.027.393.044.31.044.621.089.925.142q1.371.231,2.682.579a29.267,29.267,0,0,1,4.81,1.549c.443.186.883.382,1.316.589a30.445,30.445,0,0,1,3.157,1.737,31.055,31.055,0,0,1,9.228,8.93c3.661,5.349,5.692,14.1,13.376,14.177a21.969,21.969,0,0,0,19.93-13.159" transform="translate(386 276.5)" fill="rgba(255,255,255,0.14)"/>
    <path id="Fill_27" data-name="Fill 27" d="M13.745,67.917c.745.321,1.505.609,2.275.857s1.553.462,2.339.637c.344.076.692.143,1.039.2l.222.04c.346.057.694.111,1.043.155l.087.01c.34.042.68.076,1.022.1l.133.011c.365.027.734.046,1.1.055.023,0,.044,0,.067,0q1.149.031,2.284-.05l.021,0a21.5,21.5,0,0,0,5.743-1.2l.055-.019c.255-.093.507-.191.758-.294l.076-.032a19.433,19.433,0,0,0,2.353-1.17l.114-.071c.205-.12.4-.246.606-.376l.173-.114c.184-.124.369-.25.547-.38l.169-.12c.209-.153.414-.311.618-.473.021-.019.042-.034.065-.052q.339-.275.667-.569c.046-.038.086-.078.129-.118.169-.153.334-.309.5-.469.068-.067.137-.135.2-.2.139-.139.276-.282.412-.427.07-.076.139-.151.209-.229.135-.151.27-.307.4-.464.059-.071.12-.139.181-.212.186-.231.372-.464.553-.706,3.073-4.123,2.934-8.372,1.735-12.6-.1-.351-.209-.7-.321-1.057q-.205-.627-.431-1.254-.345-.953-.726-1.908a36.36,36.36,0,0,1-2.461-6.5c-.061-.235-.118-.467-.169-.7-.162-.7-.287-1.393-.378-2.085-.029-.229-.055-.46-.078-.691a18.33,18.33,0,0,1,0-3.432,17.312,17.312,0,0,1,.684-3.434c.139-.46.3-.92.481-1.383a22.926,22.926,0,0,1,2.218-4.222q.365-.552.749-1.093c1.794-2.524,3.878-4.841,5.855-7.222a4.706,4.706,0,0,0,.608-.929,3.161,3.161,0,0,0,.2-.5l0-.01a3.236,3.236,0,0,0,.082-.351.306.306,0,0,0,.006-.044A3.15,3.15,0,0,0,48,12.5v-.019a3.333,3.333,0,0,0-.053-.735v0a4.8,4.8,0,0,0-.194-.721,0,0,0,0,1,0,0c-.044-.122-.091-.244-.148-.37s-.116-.258-.182-.389c-.143-.286-.3-.57-.458-.855s-.325-.567-.5-.849C46.11,8,45.732,7.44,45.326,6.9s-.836-1.067-1.294-1.57q-.345-.378-.705-.738a19.231,19.231,0,0,0-1.513-1.36c-.4-.319-.8-.62-1.222-.9-.281-.185-.564-.363-.851-.529-.144-.084-.291-.164-.439-.242-.2-.109-.409-.21-.616-.307-.188-.09-.374-.172-.566-.252C37.861.9,37.6.8,37.337.705A11.717,11.717,0,0,0,35.579.249,12.874,12.874,0,0,0,30.317.3c-.156.04-.306.086-.458.134s-.285.1-.424.158c-.068.029-.137.057-.205.088a5.225,5.225,0,0,0-.783.439,4.507,4.507,0,0,0-.576.467,3.833,3.833,0,0,0-.285.3,4.074,4.074,0,0,0-.369.5,4.518,4.518,0,0,0-.534,1.259c-.711,2.707.213,5.539.029,8.279-.01.132-.019.263-.03.395-.034.309-.072.618-.116.922q-.191,1.377-.5,2.688a28.935,28.935,0,0,1-1.41,4.835c-.173.448-.355.891-.551,1.328a30.678,30.678,0,0,1-1.646,3.194,30.972,30.972,0,0,1-8.665,9.45C8.549,38.537-.144,40.813,0,48.466A21.865,21.865,0,0,0,13.745,67.917" transform="translate(156 373.5)" fill="rgba(255,255,255,0.14)"/>
    <path id="Fill_29" data-name="Fill 29" d="M39.641,69.014c.8-.325,1.576-.688,2.335-1.088s1.5-.833,2.216-1.3c.313-.2.62-.418.925-.635l.2-.141c.3-.219.6-.441.887-.673.025-.019.05-.04.076-.059.282-.226.559-.46.834-.7l.109-.091c.292-.259.576-.521.858-.791.017-.015.032-.032.05-.049q.873-.844,1.656-1.765a.123.123,0,0,1,.015-.017,22.736,22.736,0,0,0,3.351-5.226c.008-.019.017-.038.025-.057.118-.261.233-.525.34-.791.011-.027.023-.053.034-.082a20,20,0,0,0,.858-2.637c.013-.048.023-.093.034-.141.059-.241.113-.487.164-.732.015-.072.029-.145.042-.219.046-.23.084-.46.122-.692.011-.072.021-.145.032-.217.038-.27.071-.542.1-.816l.011-.086c.029-.306.05-.614.065-.924,0-.061,0-.122.006-.184q.017-.359.017-.724c0-.1,0-.2,0-.3,0-.207-.008-.416-.017-.626-.006-.108-.011-.217-.017-.327-.013-.213-.031-.43-.051-.647-.01-.1-.017-.194-.027-.291-.032-.312-.072-.624-.122-.937-.835-5.362-4.149-8.388-8.236-10.6-.34-.184-.687-.363-1.038-.536-.414-.205-.837-.4-1.265-.6-.65-.3-1.312-.582-1.98-.86a38.236,38.236,0,0,1-6.737-2.925c-.221-.126-.439-.255-.656-.386Q33.88,28.559,33,27.9c-.2-.146-.391-.3-.58-.449a19.035,19.035,0,0,1-2.6-2.525,18.072,18.072,0,0,1-2.089-3.046c-.244-.443-.473-.905-.689-1.382A24.145,24.145,0,0,1,25.5,15.71q-.149-.685-.271-1.375c-.576-3.216-.78-6.5-1.114-9.744a4.823,4.823,0,0,0-.25-1.145,3.5,3.5,0,0,0-.229-.521.042.042,0,0,0-.006-.01,3.024,3.024,0,0,0-.2-.319c-.01-.015-.021-.025-.031-.038a3.275,3.275,0,0,0-.217-.264.1.1,0,0,1-.015-.013,3.546,3.546,0,0,0-.593-.5h0a4.772,4.772,0,0,0-.69-.384h0c-.124-.057-.252-.11-.389-.162s-.278-.1-.427-.148Q20.574.933,20.075.8T19.062.554C18.377.4,17.677.282,16.967.191S15.54.039,14.819.014C14.461,0,14.1,0,13.74,0a19.778,19.778,0,0,0-2.152.143c-.532.063-1.062.15-1.583.262C9.656.48,9.313.565,8.973.661c-.172.049-.34.1-.507.152-.233.074-.464.156-.69.241-.2.076-.408.156-.608.241-.273.116-.542.241-.8.373a12.941,12.941,0,0,0-1.65.993A13.718,13.718,0,0,0,.842,6.677c-.084.146-.162.295-.237.443s-.135.291-.2.437C.378,7.63.351,7.7.325,7.778a5.4,5.4,0,0,0-.25.913A4.481,4.481,0,0,0,0,9.472c0,.145,0,.289.013.434a4.3,4.3,0,0,0,.107.652,4.791,4.791,0,0,0,.555,1.329c1.518,2.533,4.343,3.921,6.276,6.077.093.1.187.207.277.314q.312.382.61.766Q8.737,20.2,9.5,21.4a30.524,30.524,0,0,1,2.607,4.627c.21.46.406.926.6,1.4a32.674,32.674,0,0,1,1.192,3.6A32.621,32.621,0,0,1,14.6,44.537c-1.015,6.768-5.745,15.019.145,20.545,6.56,6.184,16.808,7.568,24.892,3.932" transform="translate(303 354.5)" fill="rgba(255,255,255,0.14)"/>
    <path id="Fill_31" data-name="Fill 31" d="M133.4,7.1C26.681,36.68-34.3,161.285,20.5,260.821,53.3,320.4,121.077,355.174,188.526,351.771c77.068-3.885,154.222-56.05,176.777-131.43C400.058,104.175,293.793-3.124,179.138.07A191.994,191.994,0,0,0,133.4,7.1" transform="translate(55 58.5)" fill="#df6300"/>
    <path id="Fill_33" data-name="Fill 33" d="M307.431,0c-5.7,11.621,8.424,18.354,12.811,27.621a213.987,213.987,0,0,1,13.494,38.193q.862,3.457,1.59,6.95a144.907,144.907,0,0,1,3.179,28.361q.128,6.766-.335,13.46c-3.96,57.843-40.839,112.9-97.267,133.741a186.959,186.959,0,0,1-17.4,7.186,201.665,201.665,0,0,1-93.071,9.692c-6.6-.858-13.169-2.016-19.667-3.408a111.332,111.332,0,0,1-18.273-4.676,127.7,127.7,0,0,1-39.971-22.757q-3.541-2.942-6.886-6.117a182.426,182.426,0,0,1-21.148-25.882q-1.536-2.332-2.978-4.74c-8.12-13.3-14.372-28.042-16.133-43.743a7.649,7.649,0,0,0-4.96-6.793c-2.365,17.7,5.936,34.131,11.644,50.249.649,1.728,1.317,3.41,2.012,5.075a125.709,125.709,0,0,0,12.876,23.7c2,2.946,4.091,5.794,6.277,8.577,15.294,19.469,35.044,35.784,56.207,48.288,4.381,2.29,8.8,4.38,13.279,6.3a194.9,194.9,0,0,0,42.02,12.572,193.432,193.432,0,0,0,25.883,2.884,172.425,172.425,0,0,0,23.28-.264,180.559,180.559,0,0,0,22.856-3.3,208.826,208.826,0,0,0,27.621-8.143,220.882,220.882,0,0,0,50.751-26.861q7.842-5.581,15.141-11.86c42.113-33.3,65.947-88.191,59.775-141.584q-.708-6.171-1.959-12.313a168.381,168.381,0,0,0-20.664-54.234q-1.856-3.124-3.848-6.164c-9.986-13.914-20.223-28.008-34-38.241A21.769,21.769,0,0,1,307.431,0" transform="translate(56 105.5)" fill="#df6300"/>
    <path id="Fill_39" data-name="Fill 39" d="M6.466,61.649C18,69.856,23.025,54.6,28.178,46.223c2.066-3.546,6.024-4.74,9.309-5.3,7.554-1.089,15.743-1.5,21.108-5.936,8.379-6.966,3.554-20.878-4.076-28.315A27.252,27.252,0,0,0,45.126.368,22.306,22.306,0,0,0,28.773,3.62c-5,3.3-6.531,8-6.885,13.117a51.46,51.46,0,0,0-.05,5.208c1.037,10.242-.667,18.111-9.189,24.471A110.987,110.987,0,0,1,2.119,52.9,4.777,4.777,0,0,0,.665,54.142,3.59,3.59,0,0,0,0,55.738c1.475,2.432,4.2,4.421,6.466,5.911" transform="translate(343 55.5)" fill="#df6300"/>
    <path id="Fill_41" data-name="Fill 41" d="M.79,15.815c-1.5-3.222-.639-7.024.7-10.049C3.6,1.746,9.473-2.673,12.832,2.023,15.959,6.2,12.077,10.937,9.72,14.7,8.15,17.2,4.393,17.6,1.565,16.2c-.25-.12-.507-.248-.776-.386" transform="translate(370 61.5)" fill="#f6f8f6"/>
    <path id="Fill_49" data-name="Fill 49" d="M67.941,15.991C67.762,29.2,53.566,24.6,44.466,23.885c-3.792-.391-6.861,1.938-9.084,4.11-4.962,5.1-9.767,11.047-16.03,12.655-9.822,2.491-17.6-8.8-18.982-18.641A25.5,25.5,0,0,1,.8,11.46,20.837,20.837,0,0,1,12.213.914C17.428-1.047,21.8.39,25.822,2.932a48.4,48.4,0,0,1,3.93,2.827c7.106,6.411,13.939,9.452,23.383,6.523A103.991,103.991,0,0,0,63.771,7.9a4.449,4.449,0,0,1,1.73-.414,3.382,3.382,0,0,1,1.56.376c1.014,2.449,1.006,5.6.879,8.127" transform="translate(1 236.5)" fill="#df6300"/>
    <path id="Fill_51" data-name="Fill 51" d="M17,4.929C15.455,2.1,12.186.709,9.233.093,5.117-.474-1.357,1.549.251,6.559c1.354,4.559,6.965,4.187,11.02,4.434,2.7.166,5.06-2.425,5.585-5.279.048-.25.1-.512.143-.784" transform="translate(11 241.5)" fill="#fff"/>
    <path id="Fill_56" data-name="Fill 56" d="M23.26,71.481c13.791-1.847,7.187-16.115,5.285-25.546-.889-3.917,1.159-7.418,3.148-10.016C36.4,30.089,42.009,24.316,42.9,17.56,44.263,6.975,31.475.26,21.006.046A26.934,26.934,0,0,0,10.028,1.82,21.915,21.915,0,0,0,.443,15.084c-1.392,5.7.663,10.091,3.832,13.981A50.318,50.318,0,0,0,7.73,32.821c7.6,6.628,11.647,13.393,9.778,23.638a109.755,109.755,0,0,1-3.232,11.676A4.64,4.64,0,0,0,14.059,70a3.547,3.547,0,0,0,.592,1.583c2.689.754,5.984.349,8.61-.1" transform="translate(198 3.5)" fill="#df6300"/>
    <path id="Fill_58" data-name="Fill 58" d="M6.346,18C3.213,16.732,1.368,13.46.361,10.418-.74,6.144.556-.949,5.959.106c4.9.846,5.213,6.819,5.973,11.07.507,2.834-1.89,5.653-4.789,6.573-.254.085-.52.168-.8.251" transform="translate(204 13.5)" fill="#f6f8f6"/>
    <path id="Fill_64" data-name="Fill 64" d="M38.361,27.933c-2.381,3.024-2.062,6.9-1.421,9.97,1.646,6.987,4.1,14.3,2.073,20.513C35.82,68.143,22.044,68.7,12.944,64.568A29.891,29.891,0,0,1,3.225,58.51,21.072,21.072,0,0,1,.444,43.074C1.6,37.566,5.176,34.611,9.51,32.546a47.649,47.649,0,0,1,4.523-1.83c9.278-2.608,15.55-6.8,18.167-16.443A105.323,105.323,0,0,0,34.232,2.829a4.518,4.518,0,0,1,.582-1.7A3.433,3.433,0,0,1,35.978,0a24.348,24.348,0,0,1,8.37,3.632C55.459,10.912,43.889,20.55,38.361,27.933Z" transform="translate(85 344.5)" fill="#df6300"/>
    <path id="Fill_66" data-name="Fill 66" d="M11.064.018C7.769-.217,4.786,1.889,2.642,4.16c-2.733,3.323-4.511,10.2.7,11.612,4.687,1.381,7.423-3.8,9.847-7.25,1.616-2.3.659-5.853-1.529-7.935-.189-.185-.389-.373-.6-.568" transform="translate(90 380.5)" fill="#f6f8f6"/>
    <path id="Fill_68" data-name="Fill 68" d="M3.163,64.358A17.32,17.32,0,0,1,.187,51.616c.119-.975.257-1.953.414-2.926A98.179,98.179,0,0,1,5.938,29.229C9.723,19.423,16.768,3.377,28.313.561,36.6-1.46,41.366,2.065,39.654,9.8,36.428,24.383,27.663,39.827,21.06,53.273a38.021,38.021,0,0,1-5.212,8.59A16.257,16.257,0,0,1,14.429,63.3c-2.357,2.29-6.273,3.783-9.5,1.731-.55-.208-1.135-.434-1.762-.671" transform="translate(78 154.5)" fill="#fff"/>
    <path id="Fill_70" data-name="Fill 70" d="M35.589,14.536c-.68-7.387-6.627-14-14.165-14.491a23.422,23.422,0,0,0-9.1,1.275A21.23,21.23,0,0,0,4.521,5.984,15.233,15.233,0,0,0,.439,20.656,18.819,18.819,0,0,0,14.218,34.282a19.021,19.021,0,0,0,9.534.209c6.593-1.813,12.058-7.824,12.193-14.816a17.689,17.689,0,0,0-.355-5.139" transform="translate(271 220.5)" fill="#fff"/>
    <path id="Fill_72" data-name="Fill 72" d="M1.411,24.832C-1.338,19.276.148,12.915,3.99,8.192,9.033,1.989,19.065-3.4,25.714,2.633c7.843,6.98.092,18.323-7.062,22.889a23.067,23.067,0,0,1-4.111,2.249,12.3,12.3,0,0,1-8.73.713,8.809,8.809,0,0,1-3.769-2.627c-.2-.342-.407-.686-.632-1.025" transform="translate(118 116.5)" fill="#f6f8f6"/>
    <path id="Fill_74" data-name="Fill 74" d="M4.417,15.936C3.8,11.879,2.793,5.3,7.951,4.14c2.853-.645,5.8.108,7.228,2.773,1.246,2.322,1.471,5.079,1.877,7.633.394,2.48,4.314,2.128,3.916-.369C20.12,8.8,19.2,2.287,13.115.469A11.327,11.327,0,0,0,3.872,1.694a9.418,9.418,0,0,0-3.7,6.593A27.677,27.677,0,0,0,.5,16.3c.379,2.486,4.3,2.132,3.917-.369" transform="translate(229 236.5)"/>
    <path id="Fill_76" data-name="Fill 76" d="M.075,17.566C-.643,10.18,3.847,2.574,11,.694a22.445,22.445,0,0,1,8.98-.433,20.545,20.545,0,0,1,8.365,3.131,15.409,15.409,0,0,1,6.646,13.659A18.726,18.726,0,0,1,24.276,33a18.193,18.193,0,0,1-9.125,1.977C8.482,34.419,2.112,29.527.688,22.68a17.931,17.931,0,0,1-.613-5.114" transform="translate(170 230.5)" fill="#fff"/>
    <path id="Fill_78" data-name="Fill 78" d="M.054,12A12.339,12.339,0,0,1,.18,8.745a12.192,12.192,0,0,1,.935-3C2.376,3.066,4.436.545,7.279.273,14.053-.959,23.218,1.94,23.946,9.713a12.243,12.243,0,0,1-.128,3.253A11.982,11.982,0,0,1,.054,12" transform="translate(178 231.5)"/>
    <path id="Fill_80" data-name="Fill 80" d="M0,4.127A4.5,4.5,0,0,1,.135,2.915,3.9,3.9,0,0,1,5.181.2,4.049,4.049,0,0,1,7.924,4.761,4.272,4.272,0,0,1,2.548,7.794,3.948,3.948,0,0,1,0,4.127" transform="translate(182 237.5)" fill="#fff"/>
    <path id="Fill_82" data-name="Fill 82" d="M23.946,9.972a11.805,11.805,0,0,0-2.2-5.829C20.008,1.8,17.516-.245,14.67.024,7.788.1-.684,4.6.044,12.214a11.881,11.881,0,0,0,.728,3.112A12.014,12.014,0,0,0,23.946,9.972" transform="translate(274 222.5)"/>
    <path id="Fill_84" data-name="Fill 84" d="M7.945,3.394a4.4,4.4,0,0,0-.357-1.168A3.874,3.874,0,0,0,2.127.511,4.085,4.085,0,0,0,.277,5.531a4.247,4.247,0,0,0,5.843,1.96,3.988,3.988,0,0,0,1.824-4.1" transform="translate(279 227.5)" fill="#fff"/>
    <path id="Fill_86" data-name="Fill 86" d="M37,160.684C25.469,154.47,12.4,153.015.7,146.039c-1.7-.917.106-4.593,1.225-4.159,58.05,21.45,121.383,13.3,173.056-17.864q8.636-4.72,16.812-10.18c23.916-15.378,43.746-36.388,54.4-63.268,6.733-17.077,11.865-34,18.917-50.567,12.454,26.307-1.228,55.36-14.8,79.822-9.427,17.061-21.689,29.81-35.631,41.71q-7.809,6.663-16.231,12.533-7.356,5.125-15.118,9.577T167.473,151.8c-36.3,18.264-77.724,21.648-116.774,11.752-4.552-.864-9.133-1.823-13.7-2.865" transform="translate(145 235.5)" fill="#f6f8f6"/>
    <path id="Fill_92" data-name="Fill 92" d="M23.08,24.292c-.283,3.808,2.137,6.814,4.37,8.976,5.241,4.823,11.324,9.463,13.116,15.689,2.773,9.762-8.28,17.876-18.078,19.546a25.485,25.485,0,0,1-10.556-.125A20.848,20.848,0,0,1,1.06,57.253c-2.113-5.166-.8-9.58,1.621-13.685a47.461,47.461,0,0,1,2.711-4.016c6.2-7.3,8.041-14.233,4.837-23.6A120.877,120.877,0,0,0,5.544,4.422c-.29-.616.558-1.182.537-1.72A3.379,3.379,0,0,1,6.409,1.13C8.829.042,11.978-.041,14.506.012,27.714-.189,23.532,15.157,23.08,24.292Z" transform="translate(233 384.5)" fill="#df6300"/>
    <path id="Fill_100" data-name="Fill 100" d="M.872,25.768C3.54,38.833,16.74,31.573,25.627,29.131c3.68-1.108,7.162.619,9.776,2.348,5.878,4.113,11.762,9.1,18.273,9.5,10.2.6,15.778-12.067,15.3-22.092a25.764,25.764,0,0,0-2.415-10.38A20.968,20.968,0,0,0,53.256.22c-5.538-.953-9.595,1.3-13.1,4.588A48.691,48.691,0,0,0,36.79,8.36c-5.832,7.708-12.031,12.023-21.942,10.913A104.018,104.018,0,0,1,3.479,16.953a4.476,4.476,0,0,0-1.791-.08,3.393,3.393,0,0,0-1.475.669c-.544,2.622.059,5.744.66,8.226" transform="translate(403 201.5)" fill="#df6300"/>
    <path id="Fill_102" data-name="Fill 102" d="M0,6.891C.993,3.761,3.975,1.754,6.795.576,10.777-.771,17.6.024,16.958,5.343c-.475,4.822-6.123,5.514-10.107,6.531-2.656.677-5.49-1.467-6.56-4.225C.2,7.407.1,7.155,0,6.891" transform="translate(444 206.5)" fill="#f6f8f6"/>
    <path id="Fill_104" data-name="Fill 104" d="M14.212.184a14.274,14.274,0,0,0-8.794,1.3c-4.237,2.269-7.4,7.023-3.95,11.454,5.588,7.177,16.886,8.3,23.092,1.651,3.47-3.72.029-9.91-3.576-12.03A18.979,18.979,0,0,0,14.212.184" transform="translate(254 78.5)" fill="#f6f8f6"/>
    <path id="Fill_106" data-name="Fill 106" d="M12.718.389C7.365-1.033-.023,1.485,0,7.273c-.071,7.639,9.992,10.142,16.323,7.983a7.056,7.056,0,0,0,4.237-4.071,7.2,7.2,0,0,0-2.5-8.369A14.066,14.066,0,0,0,12.718.389" transform="translate(298 91.5)" fill="#f6f8f6"/>
    <path id="Fill_108" data-name="Fill 108" d="M10.724,0C5.218-.117-1.258,4.092.212,9.74c1.848,7.478,12.152,7.538,17.7,3.932A6.963,6.963,0,0,0,20.971,8.69a7.39,7.39,0,0,0-4.5-7.583A13.965,13.965,0,0,0,10.724,0" transform="translate(180 145.5)" fill="#f6f8f6"/>
    <path id="Fill_110" data-name="Fill 110" d="M9.54.174C5.39-.738.746,2.035.075,6.278c-.648,4.5,3.01,8.353,7.691,8.713,4.112.151,8.318-1.537,9.851-5.335C18.691,6.684,17.493,2.871,14.2,1.9A10.777,10.777,0,0,0,9.54.174" transform="translate(275 105.5)" fill="#f6f8f6"/>
    <path id="Fill_112" data-name="Fill 112" d="M7.687.068C3.415.151-.4,3.933.033,8.213c.521,4.527,5.068,7.415,9.713,6.67,4.042-.814,7.7-3.437,8.228-7.487.285-3.14-1.856-6.564-5.309-6.744A10.963,10.963,0,0,0,7.687.068" transform="translate(163 176.5)" fill="#f6f8f6"/>
    <path id="Fill_114" data-name="Fill 114" d="M10.723,0C5.216-.117-1.259,4.092.212,9.74c1.846,7.478,12.152,7.538,17.7,3.932A6.957,6.957,0,0,0,20.971,8.69a7.39,7.39,0,0,0-4.5-7.583A13.967,13.967,0,0,0,10.723,0" transform="translate(170 331.5)" fill="#f6f8f6"/>
    <path id="Fill_116" data-name="Fill 116" d="M7.687.068C3.415.153-.4,3.932.033,8.213c.521,4.526,5.068,7.414,9.713,6.671,4.044-.815,7.7-3.437,8.228-7.488C18.259,4.258,16.118.832,12.665.653A10.964,10.964,0,0,0,7.687.068" transform="translate(210 336.5)" fill="#f6f8f6"/>
    <path id="Fill_118" data-name="Fill 118" d="M9.54.174C5.39-.738.746,2.035.075,6.279c-.648,4.5,3.01,8.351,7.691,8.712,4.112.149,8.318-1.539,9.851-5.336C18.691,6.683,17.493,2.871,14.2,1.9A10.757,10.757,0,0,0,9.54.174" transform="translate(349 265.5)" fill="#f6f8f6"/>
    <path id="Fill_120" data-name="Fill 120" d="M6.359.116A5.312,5.312,0,0,0,.05,4.186,5.3,5.3,0,0,0,5.175,9.994c2.744.1,5.546-1.025,6.569-3.558A3.927,3.927,0,0,0,9.467,1.263,7.177,7.177,0,0,0,6.359.116" transform="translate(336 287.5)" fill="#f6f8f6"/>
    <path id="Fill_122" data-name="Fill 122" d="M15.956,11.3c.5-5.486-3.263-12.25-9.012-11.186C-.657,1.422-1.428,11.7,1.8,17.5a7,7,0,0,0,4.771,3.4,7.386,7.386,0,0,0,7.889-3.947,13.986,13.986,0,0,0,1.5-5.66" transform="translate(100 309.5)" fill="#f6f8f6"/>
    <path id="Fill_124" data-name="Fill 124" d="M14.99,8.213C15.192,3.955,11.669-.113,7.36,0,2.8.19-.393,4.5.039,9.181.584,13.263,2.96,17.1,6.974,17.917c3.119.512,6.687-1.367,7.1-4.791a10.882,10.882,0,0,0,.917-4.913" transform="translate(85 288.5)" fill="#f6f8f6"/>
    <path id="Fill_130" data-name="Fill 130" d="M6.542,2.739C18.32-6.312,24.361,9.26,30.2,17.69c2.35,3.575,6.587,4.626,10.083,5.048,8.026.769,16.69.809,22.566,5.146,9.179,6.819,4.757,21.464-2.938,29.532A28.773,28.773,0,0,1,50.3,64.393,23.949,23.949,0,0,1,32.881,61.8c-5.44-3.178-7.279-7.984-7.9-13.262a53.053,53.053,0,0,1-.3-5.395c.6-10.661-1.576-18.733-10.876-24.919A118.825,118.825,0,0,0,2.375,12.012a5.04,5.04,0,0,1-1.6-1.219A3.772,3.772,0,0,1,0,9.172c1.439-2.591,4.225-4.78,6.542-6.433" transform="translate(348 325.5)" fill="#df6300"/>
    <path id="Fill_132" data-name="Fill 132" d="M.618,1.322C-.707,4.453.3,8.034,1.739,10.852,3.984,14.585,9.92,18.527,13,13.909c2.875-4.115-1.128-8.447-3.6-11.92C7.757-.324,4.066-.536,1.36.92c-.24.126-.486.26-.742.4" transform="translate(383 369.5)" fill="#f6f8f6"/>
    <path id="Fill_134" data-name="Fill 134" d="M4.712,0C1.9,1.628.593,4.937.057,7.91-.4,12.043,1.833,18.456,6.842,16.7,11.4,15.215,10.866,9.614,11,5.549,11.085,2.841,8.4.56,5.507.119c-.255-.041-.52-.08-.8-.119" transform="translate(238 426.5)" fill="#f6f8f6"/>
  </g>
</svg>
