<svg xmlns="http://www.w3.org/2000/svg" width="498.261" height="498.499" viewBox="0 0 498.261 498.499">
  <g id="Group_17_Copy_6" data-name="Group 17 Copy 6" transform="matrix(0.998, 0.07, -0.07, 0.998, 32.839, -0.13)">
    <path id="Stroke_1" data-name="Stroke 1" d="M81.1,40.571A40.549,40.549,0,1,1,40.549,0,40.565,40.565,0,0,1,81.1,40.571Z" transform="translate(135.607 122.209)" fill="none" stroke="#000" stroke-miterlimit="10" stroke-width="1"/>
    <path id="Stroke_3" data-name="Stroke 3" d="M54.395,27.212A27.2,27.2,0,1,1,27.2,0,27.2,27.2,0,0,1,54.395,27.212Z" transform="translate(269.877 298.22)" fill="none" stroke="#000" stroke-miterlimit="10" stroke-width="1"/>
    <path id="Stroke_5" data-name="Stroke 5" d="M54.395,27.212A27.2,27.2,0,1,1,27.2,0,27.2,27.2,0,0,1,54.395,27.212Z" transform="translate(114.949 237.639)" fill="none" stroke="#000" stroke-miterlimit="10" stroke-width="1"/>
    <path id="Stroke_7" data-name="Stroke 7" d="M54.395,27.212A27.2,27.2,0,1,1,27.194,0,27.208,27.208,0,0,1,54.395,27.212Z" transform="translate(216.063 237.508)" fill="none" stroke="#000" stroke-miterlimit="10" stroke-width="1"/>
    <path id="Stroke_9" data-name="Stroke 9" d="M40.549,20.286A20.274,20.274,0,1,1,20.274,0,20.281,20.281,0,0,1,40.549,20.286Z" transform="translate(323.135 230.484)" fill="none" stroke="#000" stroke-miterlimit="10" stroke-width="1"/>
    <path id="Stroke_11" data-name="Stroke 11" d="M26.7,13.356A13.351,13.351,0,1,1,13.351,0,13.357,13.357,0,0,1,26.7,13.356Z" transform="translate(216.662 345.532)" fill="none" stroke="#000" stroke-miterlimit="10" stroke-width="1"/>
    <path id="Stroke_13" data-name="Stroke 13" d="M26.7,13.356A13.351,13.351,0,1,1,13.348,0,13.359,13.359,0,0,1,26.7,13.356Z" transform="translate(276.838 156.818)" fill="none" stroke="#000" stroke-miterlimit="10" stroke-width="1"/>
    <path id="Stroke_15" data-name="Stroke 15" d="M463.8,226.647c-3.36-7.672-9.464-9.831-15.742-7.107-3.722,1.616-6.958,2.905-6.958,2.905-5.8,2.42-12.121,5.4-18.515,5.4h-1.846a12.393,12.393,0,0,1-12.288-11.324,177.472,177.472,0,0,0-12.5-50.706,12.371,12.371,0,0,1,5.184-15.468l2.31-1.34c5.539-3.195,12.512-3.775,18.739-4.579,0,0,3.447-.507,7.473-.971,6.806-.775,11.006-5.709,10.086-14.026a26.174,26.174,0,0,0-10.065-17.446c-6.748-4.955-13.106-3.782-17.19,1.724-2.411,3.26-4.576,6-4.576,6-3.809,4.992-7.791,10.744-13.338,13.946l-1.55.9a12.4,12.4,0,0,1-16.314-3.68,175.216,175.216,0,0,0-36.19-37.572,12.375,12.375,0,0,1-3.273-16l1.361-2.34c3.193-5.55,8.942-9.534,13.939-13.345,0,0,2.73-2.166,5.988-4.579,5.5-4.079,6.683-10.454,1.723-17.192a26.079,26.079,0,0,0-17.436-10.07c-8.312-.927-13.243,3.282-14.025,10.085-.456,4.028-.956,7.477-.956,7.477-.811,6.238-1.39,13.207-4.583,18.757l-.941,1.623a12.371,12.371,0,0,1-15.952,4.977,175.208,175.208,0,0,0-50.085-14.562A12.373,12.373,0,0,1,245.45,45.9V43.266c0-6.4,2.983-12.729,5.4-18.532,0,0,1.289-3.238,2.9-6.962,2.73-6.281.558-12.4-7.1-15.75a26.069,26.069,0,0,0-20.13,0c-7.661,3.354-9.826,9.469-7.1,15.75,1.622,3.724,2.9,6.962,2.9,6.962,2.418,5.8,5.4,12.128,5.4,18.532v1.84a12.377,12.377,0,0,1-11.317,12.287,177.179,177.179,0,0,0-50.671,12.519,12.369,12.369,0,0,1-15.466-5.187l-1.332-2.311c-3.2-5.55-3.78-12.512-4.583-18.75,0,0-.507-3.449-.963-7.484-.775-6.8-5.706-11.012-14.025-10.085a26.154,26.154,0,0,0-17.436,10.07c-4.953,6.745-3.772,13.12,1.731,17.192,3.258,2.42,5.988,4.579,5.988,4.579,4.989,3.818,10.738,7.8,13.939,13.345l.905,1.558a12.42,12.42,0,0,1-3.686,16.323,175.373,175.373,0,0,0-37.551,36.21,12.356,12.356,0,0,1-15.995,3.267l-2.339-1.355c-5.546-3.2-9.522-8.947-13.338-13.946,0,0-2.165-2.731-4.576-5.991-4.069-5.506-10.441-6.687-17.182-1.724A26.131,26.131,0,0,0,29.76,123.068c-.92,8.317,3.28,13.251,10.079,14.026,4.033.464,7.48.964,7.48.964,6.234.811,13.2,1.384,18.739,4.586l1.629.942a12.372,12.372,0,0,1,4.96,15.96,175.417,175.417,0,0,0-14.54,50.112,12.377,12.377,0,0,1-12.23,10.831H43.242c-6.4,0-12.722-2.985-18.522-5.4,0,0-3.237-1.282-6.958-2.9-6.278-2.731-12.382-.565-15.742,7.1a26.127,26.127,0,0,0,0,20.148c3.36,7.665,9.464,9.831,15.742,7.1,3.722-1.616,6.958-2.9,6.958-2.9,5.8-2.42,12.121-5.4,18.522-5.4h1.846a12.373,12.373,0,0,1,12.273,11.316,177.964,177.964,0,0,0,12.512,50.706,12.375,12.375,0,0,1-5.184,15.475l-2.3,1.333c-5.546,3.2-12.512,3.775-18.739,4.586,0,0-3.454.507-7.487.964-6.8.782-11,5.709-10.079,14.033a26.18,26.18,0,0,0,10.065,17.438c6.741,4.963,13.113,3.782,17.19-1.724,2.411-3.26,4.569-5.991,4.569-5.991,3.816-5,7.8-10.744,13.338-13.946l1.564-.9a12.379,12.379,0,0,1,16.306,3.68,175.046,175.046,0,0,0,36.2,37.564,12.371,12.371,0,0,1,3.258,16l-1.347,2.347c-3.208,5.542-8.95,9.527-13.939,13.338,0,0-2.737,2.166-6,4.579-5.5,4.079-6.676,10.454-1.723,17.2A26.108,26.108,0,0,0,123,436.3c8.32.927,13.243-3.282,14.018-10.085.463-4.028.97-7.477.97-7.477.8-6.238,1.376-13.207,4.583-18.75l.941-1.63a12.36,12.36,0,0,1,15.944-4.97,175.17,175.17,0,0,0,50.092,14.555,12.38,12.38,0,0,1,10.825,12.236v2.637c0,6.4-2.983,12.729-5.4,18.532,0,0-1.289,3.238-2.9,6.962-2.73,6.281-.565,12.389,7.1,15.75a26.155,26.155,0,0,0,20.13,0c7.668-3.362,9.833-9.469,7.1-15.75-1.622-3.724-2.9-6.962-2.9-6.962-2.418-5.8-5.4-12.128-5.4-18.532v-1.847a12.387,12.387,0,0,1,11.317-12.287,177.238,177.238,0,0,0,50.671-12.519,12.372,12.372,0,0,1,15.466,5.187l1.332,2.318c3.2,5.542,3.772,12.512,4.583,18.742,0,0,.507,3.456.97,7.484.775,6.8,5.7,11.012,14.018,10.085a26.042,26.042,0,0,0,17.429-10.07c4.96-6.745,3.787-13.113-1.716-17.192-3.258-2.413-6-4.579-6-4.579-5-3.811-10.738-7.8-13.939-13.345l-.9-1.558a12.394,12.394,0,0,1,3.678-16.315A175.036,175.036,0,0,0,372.562,340.7a12.366,12.366,0,0,1,15.995-3.267l2.346,1.355c5.539,3.2,9.522,8.947,13.338,13.946,0,0,2.158,2.739,4.576,5.991,4.077,5.513,10.441,6.687,17.182,1.724a26.137,26.137,0,0,0,10.065-17.438c.927-8.324-3.28-13.251-10.086-14.033-4.019-.456-7.473-.964-7.473-.964-6.227-.8-13.193-1.384-18.739-4.586l-1.622-.942a12.371,12.371,0,0,1-4.974-15.953,175.479,175.479,0,0,0,14.547-50.12,12.377,12.377,0,0,1,12.23-10.831h2.643c6.394,0,12.715,2.985,18.515,5.4,0,0,3.237,1.29,6.958,2.905,6.278,2.724,12.382.558,15.742-7.107a26.2,26.2,0,0,0,0-20.141Z" transform="translate(0.252 0.648)" fill="none" stroke="#000" stroke-miterlimit="10" stroke-width="1"/>
  </g>
</svg>
