<svg id="Fever" xmlns="http://www.w3.org/2000/svg" xmlns:xlink="http://www.w3.org/1999/xlink" width="108" height="107" viewBox="0 0 108 107">
  <defs>
    <clipPath id="clip-path">
      <path id="Clip_2" data-name="Clip 2" d="M0,53.5C0,83.047,24.177,107,54,107h0c29.824,0,54-23.953,54-53.5h0C108,23.953,83.823,0,54,0h0C24.177,0,0,23.953,0,53.5" fill="none"/>
    </clipPath>
    <clipPath id="clip-path-2"/>
  </defs>
  <path id="Clip_2-2" data-name="Clip 2" d="M0,53.5C0,83.047,24.177,107,54,107h0c29.824,0,54-23.953,54-53.5h0C108,23.953,83.823,0,54,0h0C24.177,0,0,23.953,0,53.5" fill="none"/>
  <g id="Fever-2" data-name="Fever" clip-path="url(#clip-path)">
    <path id="Fill_1" data-name="Fill 1" d="M137,68c0,37.555-30.669,68-68.5,68S0,105.555,0,68,30.669,0,68.5,0,137,30.445,137,68" transform="translate(-13 -16)" fill="#e4e5f7"/>
    <path id="Fill_4" data-name="Fill 4" d="M8.9,44C7.249,41.384-.831,34.392.07,24.236.323,21.378,1.1,12.62,8.024,6.073A21.341,21.341,0,0,1,19.353.182C26.889-1.047,35.5,4.355,35.5,4.355s1.988,1.831,2.41,2.209C40.256,8.661,42.7,9.3,43.939,10c4.931,2.78,4.1,13.987,3.857,17.181-.579,7.76-6.437,12.837-8.783,16.691,1.072-2.6,5.747-6.669,5.167-13.009-.322-3.527-1.063-11.626-6.99-15.463-4.3-2.781-9.143-1.917-13.016-1.227-9.372,1.67-15.8,7.36-19.042,10.8-.909,2.467,1.667,6.12,2.082,11.419A28.019,28.019,0,0,0,8.9,44" transform="translate(25 21)" fill="#262c7c"/>
    <path id="Fill_7" data-name="Fill 7" d="M.006,9.982c-.149-.239,2.6-2.734,6.515-4.659,3.507-1.725,6.2-2.134,6.132-2.589-.066-.413-2.373-.565-4.6-.129-3.119.61-4.967,2.155-5.11,1.941S4.531,2.4,7.159,1.181A15.068,15.068,0,0,1,14.313.016,24.789,24.789,0,0,1,23,1.828a45.779,45.779,0,0,0-7.92,1.424C6.035,5.717.216,10.321.006,9.982" transform="translate(35 24)" fill="#8591ff"/>
    <path id="Fill_10" data-name="Fill 10" d="M12,4.122A28.964,28.964,0,0,1,6.665,7.091,28.345,28.345,0,0,1,0,9L.452,0H11.677Z" transform="translate(44 71)" fill="#9195cb"/>
    <path id="Fill_13" data-name="Fill 13" d="M13,9H0L.2,5.011A28.218,28.218,0,0,0,6.922,3.05,29.087,29.087,0,0,0,12.307,0Z" transform="translate(44 75)" fill="#e4e5f7"/>
    <path id="Fill_16" data-name="Fill 16" d="M4.395,11A5.708,5.708,0,0,1,0,5.563,5.754,5.754,0,0,1,5,0" transform="translate(25 46)" fill="#9195cb"/>
    <path id="Fill_19" data-name="Fill 19" d="M2.336,11A5.709,5.709,0,0,0,6,5.7,5.771,5.771,0,0,0,.165,0,1.576,1.576,0,0,0,0,.006" transform="translate(68 43)" fill="#9195cb"/>
    <path id="Fill_22" data-name="Fill 22" d="M41,20.5A20.5,20.5,0,1,1,20.5,0,20.5,20.5,0,0,1,41,20.5" transform="translate(29 32)" fill="#bec1e0"/>
    <path id="Stroke_25" data-name="Stroke 25" d="M0,3.983a9.262,9.262,0,0,0,4.364-.8A8.247,8.247,0,0,0,8,0" transform="translate(36 37)" fill="none" stroke="#262c7c" stroke-linecap="round" stroke-miterlimit="10" stroke-width="1.4"/>
    <path id="Stroke_28" data-name="Stroke 28" d="M0,0A12.2,12.2,0,0,0,3.31,3.235,11.4,11.4,0,0,0,8,5" transform="translate(54 36)" fill="none" stroke="#262c7c" stroke-linecap="round" stroke-miterlimit="10" stroke-width="1.4"/>
    <path id="Stroke_31" data-name="Stroke 31" d="M0,0A5.154,5.154,0,0,0,2.3.93,5.952,5.952,0,0,0,5,.723" transform="translate(54 45)" fill="none" stroke="#262c7c" stroke-linecap="round" stroke-miterlimit="10" stroke-width="1.4"/>
    <path id="Stroke_34" data-name="Stroke 34" d="M0,2.852a2.671,2.671,0,0,0,2.133-.168A4.276,4.276,0,0,0,4,0" transform="translate(39 44)" fill="none" stroke="#262c7c" stroke-linecap="round" stroke-miterlimit="10" stroke-width="1.4"/>
    <g id="Group_39" data-name="Group 39" transform="translate(45 45)">
      <path id="Stroke_37" data-name="Stroke 37" d="M1.85,0C-.312,5.459-.6,10.114,1.1,11.564a4.526,4.526,0,0,0,2.243,1.025,4.143,4.143,0,0,0,2.691-.732" transform="translate(0.454 0.062)" fill="none" stroke="#262c7c" stroke-linecap="round" stroke-miterlimit="10" stroke-width="1.4"/>
    </g>
    <g id="Group_42" data-name="Group 42">
      <g id="Group_42-2" data-name="Group 42" clip-path="url(#clip-path-2)">
        <path id="Fill_40" data-name="Fill 40" d="M72.569,27.452H0c1.124-9.247,5.165-14.071,7.2-16.1,2.46-2.447,5.115-3.917,9.97-6.6,3.3-1.824,6.3-3.245,8.817-4.333a10.036,10.036,0,0,0,7.651,3.514,10.066,10.066,0,0,0,8-3.932A57.109,57.109,0,0,1,52.9,3.236c5.812,2.336,9.758,3.92,13.3,7.706,4.379,4.681,5.865,12.638,6.374,16.509" transform="translate(16.405 79.541)" fill="#262c7c"/>
      </g>
    </g>
    <g id="Group_45" data-name="Group 45" transform="translate(42 84)">
      <path id="Stroke_43" data-name="Stroke 43" d="M0,1.243a17.964,17.964,0,0,0,8.627,1.74A17.71,17.71,0,0,0,17.658,0" transform="translate(0.269 0.4)" fill="none" stroke="#1b1464" stroke-linecap="round" stroke-miterlimit="10" stroke-width="8"/>
    </g>
    <path id="Stroke_46" data-name="Stroke 46" d="M0,2A15.2,15.2,0,0,1,8.355.023,14.924,14.924,0,0,1,15,2" transform="translate(41 63)" fill="none" stroke="#262c7c" stroke-linecap="round" stroke-miterlimit="10" stroke-width="1.4"/>
    <path id="Fill_49" data-name="Fill 49" d="M9,23.768A4.372,4.372,0,0,1,4.5,28,4.372,4.372,0,0,1,0,23.768a4.149,4.149,0,0,1,1.9-3.442V0H7.1V20.326A4.148,4.148,0,0,1,9,23.768" transform="translate(89 34)" fill="#ffd8e9"/>
    <path id="Stroke_52" data-name="Stroke 52" d="M9,25.646A4.429,4.429,0,0,1,4.5,30,4.429,4.429,0,0,1,0,25.646,4.3,4.3,0,0,1,1.9,22.1V0H7.1V22.1A4.3,4.3,0,0,1,9,25.646Z" transform="translate(89 32)" fill="none" stroke="#eb0065" stroke-linecap="round" stroke-linejoin="round" stroke-miterlimit="10" stroke-width="1.4"/>
    <path id="Stroke_55" data-name="Stroke 55" d="M0,.146H2" transform="translate(91 52.854)" fill="none" stroke="#eb0065" stroke-linecap="round" stroke-linejoin="round" stroke-miterlimit="10" stroke-width="1.4"/>
    <path id="Stroke_58" data-name="Stroke 58" d="M0,.146H2" transform="translate(91 44.854)" fill="none" stroke="#eb0065" stroke-linecap="round" stroke-linejoin="round" stroke-miterlimit="10" stroke-width="1.4"/>
    <g id="Group_63" data-name="Group 63" transform="translate(91 47)">
      <path id="Stroke_61" data-name="Stroke 61" d="M0,.1H2.368" transform="translate(0.555 0.468)" fill="none" stroke="#eb0065" stroke-linecap="round" stroke-linejoin="round" stroke-miterlimit="10" stroke-width="1.4"/>
    </g>
    <g id="Group_66" data-name="Group 66" transform="translate(91 50)">
      <path id="Stroke_64" data-name="Stroke 64" d="M0,.1H2.368" transform="translate(0.555 0.353)" fill="none" stroke="#eb0065" stroke-linecap="round" stroke-linejoin="round" stroke-miterlimit="10" stroke-width="1.4"/>
    </g>
    <g id="Group_69" data-name="Group 69" transform="translate(10 15)">
      <path id="Stroke_67" data-name="Stroke 67" d="M5.708,0C1.892,2.509.924,4.742.787,6.366c-.1,1.156.259,1.62,1.747,5.865,1.947,5.553,1.941,6.481,1.8,7.24C4.115,20.6,3.349,22.633,0,24.714" transform="translate(0.621 0.641)" fill="none" stroke="#6468a1" stroke-linecap="round" stroke-miterlimit="10" stroke-width="1.4"/>
    </g>
    <g id="Group_72" data-name="Group 72" transform="translate(18 11)">
      <path id="Stroke_70" data-name="Stroke 70" d="M5.5,0C1.824,2.509.891,4.742.759,6.366c-.094,1.156.25,1.621,1.685,5.865,1.877,5.553,1.872,6.481,1.732,7.241C3.968,20.6,3.229,22.633,0,24.714" transform="translate(0.37 0.728)" fill="none" stroke="#6468a1" stroke-linecap="round" stroke-miterlimit="10" stroke-width="1.4"/>
    </g>
    <g id="Group_75" data-name="Group 75" transform="translate(80 9)">
      <path id="Stroke_73" data-name="Stroke 73" d="M0,0C3.68,2.483,4.613,4.694,4.745,6.3c.094,1.145-.25,1.6-1.685,5.805-1.877,5.5-1.872,6.416-1.732,7.167.207,1.117.947,3.129,4.176,5.189" transform="translate(0.426 0.427)" fill="none" stroke="#6468a1" stroke-linecap="round" stroke-miterlimit="10" stroke-width="1.4"/>
    </g>
    <g id="Group_78" data-name="Group 78" transform="translate(73 16)">
      <path id="Stroke_76" data-name="Stroke 76" d="M0,0C3.817,2.483,4.784,4.694,4.921,6.3c.1,1.145-.259,1.6-1.747,5.806-1.947,5.5-1.941,6.415-1.8,7.167.215,1.117.982,3.129,4.33,5.189" transform="translate(0.75 0.468)" fill="none" stroke="#6468a1" stroke-linecap="round" stroke-miterlimit="10" stroke-width="1.4"/>
    </g>
  </g>
</svg>
