<svg xmlns="http://www.w3.org/2000/svg" width="50.255" height="50.258" viewBox="0 0 50.255 50.258">
  <g id="Group_13" data-name="Group 13" transform="translate(-0.01 -0.01)">
    <path id="Stroke_1_Copy" data-name="Stroke 1 Copy" d="M49,24.495a24.52,24.52,0,1,1-7.289-17.42A24.447,24.447,0,0,1,49,24.495Z" transform="translate(0.765 0.768)" fill="rgba(122,219,0,0.1)"/>
    <path id="Stroke_1" data-name="Stroke 1" d="M49.255,24.622a24.647,24.647,0,1,1-7.327-17.51A24.574,24.574,0,0,1,49.255,24.622Z" transform="translate(0.51 0.513)" fill="none" stroke="#7adb00" stroke-miterlimit="10" stroke-width="1"/>
    <path id="Stroke_3" data-name="Stroke 3" d="M27.32,24.629c0,13.6-6.115,24.629-13.66,24.629S0,38.231,0,24.629,6.115,0,13.66,0,27.32,11.027,27.32,24.629Z" transform="translate(11.476 0.51)" fill="none" stroke="#7adb00" stroke-miterlimit="10" stroke-width="1"/>
    <path id="Stroke_5" data-name="Stroke 5" d="M34.6,7.112a21.323,21.323,0,0,1-5.561,4.939,22.218,22.218,0,0,1-11.746,3.316A22.179,22.179,0,0,1,5.56,12.051,21.286,21.286,0,0,1,0,7.112a24.6,24.6,0,0,1,34.6,0Z" transform="translate(7.837 0.513)" fill="none" stroke="#7adb00" stroke-miterlimit="10" stroke-width="1"/>
    <path id="Stroke_7" data-name="Stroke 7" d="M34.745,8.347A24.535,24.535,0,0,1,17.367,15.52,24.5,24.5,0,0,1,0,8.347a21.33,21.33,0,0,1,5.593-5.01,22.465,22.465,0,0,1,23.561,0A21.72,21.72,0,0,1,34.745,8.347Z" transform="translate(7.765 34.248)" fill="none" stroke="#7adb00" stroke-miterlimit="10" stroke-width="1"/>
    <path id="Stroke_9" data-name="Stroke 9" d="M0,.51H49.256" transform="translate(0.51 24.626)" fill="none" stroke="#7adb00" stroke-miterlimit="10" stroke-width="1"/>
    <path id="Stroke_11" data-name="Stroke 11" d="M.51,0V49.255" transform="translate(24.623 0.513)" fill="none" stroke="#7adb00" stroke-miterlimit="10" stroke-width="1"/>
  </g>
</svg>
