<svg xmlns="http://www.w3.org/2000/svg" xmlns:xlink="http://www.w3.org/1999/xlink" width="107.832" height="107.832" viewBox="0 0 107.832 107.832">
  <defs>
    <clipPath id="clip-path">
      <path id="Clip_2" data-name="Clip 2" d="M0,53.916a53.916,53.916,0,0,0,53.916,53.916h0a53.916,53.916,0,0,0,53.916-53.916h0A53.916,53.916,0,0,0,53.916,0h0A53.916,53.916,0,0,0,0,53.916" transform="translate(0.069 0.022)" fill="none"/>
    </clipPath>
    <clipPath id="clip-path-2">
      <path id="Clip_5" data-name="Clip 5" d="M0,53.916a53.916,53.916,0,0,0,53.916,53.916h0a53.916,53.916,0,0,0,53.916-53.916h0A53.916,53.916,0,0,0,53.916,0h0A53.916,53.916,0,0,0,0,53.916" transform="translate(0.069 0.146)" fill="none"/>
    </clipPath>
  </defs>
  <g id="Group_79" data-name="Group 79" transform="translate(-0.069 -0.146)">
    <g id="Group_3" data-name="Group 3" transform="translate(0 0.125)">
      <path id="Clip_2-2" data-name="Clip 2" d="M0,53.916a53.916,53.916,0,0,0,53.916,53.916h0a53.916,53.916,0,0,0,53.916-53.916h0A53.916,53.916,0,0,0,53.916,0h0A53.916,53.916,0,0,0,0,53.916" transform="translate(0.069 0.022)" fill="none"/>
      <g id="Group_3-2" data-name="Group 3" clip-path="url(#clip-path)">
        <path id="Fill_1" data-name="Fill 1" d="M148.057,74.029A74.029,74.029,0,1,1,74.029,0a74.029,74.029,0,0,1,74.029,74.029" transform="translate(-19.422 -20.091)" fill="#e4e5f7"/>
      </g>
    </g>
    <path id="Clip_5-2" data-name="Clip 5" d="M0,53.916a53.916,53.916,0,0,0,53.916,53.916h0a53.916,53.916,0,0,0,53.916-53.916h0A53.916,53.916,0,0,0,53.916,0h0A53.916,53.916,0,0,0,0,53.916" transform="translate(0.069 0.146)" fill="none"/>
    <g id="Mask_Group_1" data-name="Mask Group 1" clip-path="url(#clip-path-2)">
      <path id="Fill_4" data-name="Fill 4" d="M56,23.586v0a3.405,3.405,0,0,1-.334,1.51,3.982,3.982,0,0,1-2.231,1.837,5.456,5.456,0,0,1-2.494,3.676,5.253,5.253,0,0,1-3.282.657,4.151,4.151,0,0,1-1.312,3.676,3.909,3.909,0,0,1-3.939.655,3.143,3.143,0,0,1-5.12,1.445q-5.884-1.612-11.815-3.282Q12.856,30.209.536,26.541C-.353,20.2-.8,10.16,4.738,6.194a38.873,38.873,0,0,1,5.776-2.231C20.811.354,23.288-.026,24.444,0c.2,0,.379.023.379.023a15.1,15.1,0,0,1,6.726,2.123C38.76,4.564,53.02,10.478,55.713,22q.181.776.292,1.59" transform="translate(27.353 41.174)" fill="#bec1e0"/>
      <path id="Fill_7" data-name="Fill 7" d="M13,1.838q-1.442,6.251-2.9,12.5Q8.6,20.756,7.089,27.174L0,26.78,6.17,0Z" transform="translate(21.326 43.036)" fill="#9195cb"/>
      <path id="Fill_10" data-name="Fill 10" d="M43.977,18.653q-3.575,2.461-7.15,4.921a6.339,6.339,0,0,0-2.958-4.921L17.527,6.715c.365-.136.735-.269,1.115-.4q-.779.046-1.465.145h0a17.023,17.023,0,0,0-3.26.773c-1.76.608-2.766,1.283-7.482,3.545-1.418.679-2.342,1.1-3.545.918A5,5,0,0,1,0,9.989C1,9.1,2.565,7.695,4.464,5.92,6.825,3.709,7.212,3.259,8.27,2.638A10.42,10.42,0,0,1,10.724,1.6c.995-.287,2.155-.506,3.716-.8A27.89,27.89,0,0,1,20.478.012c4.658.247,9.163,2.848,10.372,3.545A8.216,8.216,0,0,0,34.787,5,7.407,7.407,0,0,0,38.6,4.081q2.69,7.286,5.382,14.572" transform="translate(46.53 41.186)" fill="#9195cb"/>
      <path id="Fill_13" data-name="Fill 13" d="M47.915,15.359c-.781,3.186-2.631,10.73-3.413,13.915-.994,4.048-2.941,11.968-3.938,16.015L0,43.583Q.262,21.792.525,0L47.915,15.359" transform="translate(-18.45 26.758)" fill="#262c7c"/>
      <path id="Fill_16" data-name="Fill 16" d="M.826.078c.626.374,1.189.772,1.757,1.181s1.119.831,1.66,1.27A18.332,18.332,0,0,1,5.805,3.923,19.234,19.234,0,0,1,7.156,5.507,19.052,19.052,0,0,0,5.584,4.17c-.538-.418-1.105-.8-1.684-1.162S2.73,2.3,2.133,1.966.926,1.311.33,1.047l-.006,0a.546.546,0,1,1,.5-.967" transform="translate(62.587 71.247)" fill="#6468a1"/>
      <path id="Fill_19" data-name="Fill 19" d="M0,16.015q.9,4.175,2.1,8.664c1.028,3.811,2.136,7.4,3.282,10.764l43.583-5.907L47.652,0,0,16.015" transform="translate(83.418 28.202)" fill="#eb0065"/>
      <path id="Fill_22" data-name="Fill 22" d="M24.339,13.278a2.931,2.931,0,0,1-1.5,1.3,3,3,0,0,1-2.423-.227,3.523,3.523,0,0,1-1.706-2.363,3.5,3.5,0,0,1-6.563-1.706,4.238,4.238,0,0,1-4.727.655,4.313,4.313,0,0,1-2.1-3.019c-.628.094-2.955.372-4.331-1.051A3.871,3.871,0,0,1,0,4.24Q6.918-.086,8.468,1.358,9.478,2.3,8.2,5.688,15.705-1,17.262.176q1.182.89-1.049,6.3c3.2-3.153,6.081-4.712,7.088-3.937,1.249.96-.6,5.329-.788,5.776,3.405-2.089,4.3-1.862,4.6-1.576.86.851-1.37,4.451-2.77,6.538" transform="translate(38.851 66.621)" fill="#9195cb"/>
      <path id="Stroke_25" data-name="Stroke 25" d="M.091.092v0" transform="translate(83.267 64.67)" fill="none" stroke="#000" stroke-miterlimit="10" stroke-width="1"/>
      <path id="Stroke_28" data-name="Stroke 28" d="M0,0Q1.277,5.4,2.964,11.237q1.448,4.955,3.007,9.489" transform="translate(90.299 41.906)" fill="none" stroke="#ffe6f1" stroke-linecap="round" stroke-miterlimit="10" stroke-width="5"/>
      <path id="Stroke_31" data-name="Stroke 31" d="M0,0Q2.045,5.38,4.075,10.836q1.931,5.189,3.8,10.334" transform="translate(93.784 40.733)" fill="none" stroke="#ffe6f1" stroke-linecap="round" stroke-miterlimit="10" stroke-width="5"/>
      <path id="Fill_34" data-name="Fill 34" d="M.834,1c-.9.986-1.1,2.273-.448,2.875s1.921.29,2.825-.7S4.316.908,3.659.306,1.738.016.834,1" transform="translate(52.611 66.533)" fill="#262c7c"/>
      <path id="Fill_37" data-name="Fill 37" d="M3.081,3.081C4.063,2.1,4.4.843,3.832.276S2.009.045,1.027,1.027-.292,3.265.276,3.832s1.823.231,2.805-.751" transform="translate(58.703 68.986)" fill="#262c7c"/>
      <path id="Fill_40" data-name="Fill 40" d="M2.893.178C2.446-.231,1.488.089.751.892S-.22,2.678.226,3.087s1.405.09,2.141-.714.972-1.786.525-2.2" transform="translate(63.359 73.008)" fill="#262c7c"/>
      <path id="Fill_43" data-name="Fill 43" d="M3.812.359c.469.594.039,1.716-.961,2.507S.659,3.816.19,3.222.151,1.506,1.151.715,3.343-.235,3.812.359" transform="translate(44.263 67.464)" fill="#262c7c"/>
      <path id="Fill_46" data-name="Fill 46" d="M4.491,1.336A2.927,2.927,0,0,1,1.563,4.264,2.905,2.905,0,0,1,0,3.812L4.168,0a2.9,2.9,0,0,1,.323,1.336" transform="translate(46.591 47.382)" fill="#262c7c"/>
      <path id="Fill_49" data-name="Fill 49" d="M.862.1C2.076.963,3.32,1.8,4.557,2.65s2.48,1.691,3.705,2.567c.616.437,1.2.9,1.8,1.351l1.795,1.359,3.588,2.717L7.922,5.719C6.663,4.916,5.38,4.141,4.1,3.363S1.532,1.813.254,1.005A.545.545,0,0,1,.836.084L.859.1Z" transform="translate(59.604 61.775)" fill="#6468a1"/>
      <path id="Fill_52" data-name="Fill 52" d="M.876.113,8.646,5.95c1.3.973,2.567,1.98,3.848,2.972l3.837,2.985L8.3,6.438.24,1a.545.545,0,0,1,.61-.9L.871.108Z" transform="translate(64.478 56.247)" fill="#6468a1"/>
      <path id="Fill_55" data-name="Fill 55" d="M8.93,4.714c-.079-.014-.164.048-.236.16l-.665-.117c0-.049,0-.1,0-.148s0-.1,0-.148l.665-.117c.072.111.157.174.236.16.156-.027.231-.338.168-.694s-.24-.623-.4-.6c-.079.014-.137.1-.168.231l-.664.117q-.045-.142-.1-.278l.584-.337c.106.08.207.109.277.069.137-.079.1-.4-.08-.71s-.438-.5-.575-.424c-.07.04-.095.142-.078.274l-.585.338q-.09-.118-.19-.227l.434-.517c.127.039.232.032.284-.03.1-.121-.04-.408-.317-.64s-.584-.323-.686-.2c-.052.062-.04.166.02.285l-.434.517Q6.3,1.6,6.166,1.53L6.4.9c.133-.007.229-.049.256-.125C6.708.622,6.476.4,6.136.278s-.659-.1-.713.045c-.028.076.019.17.116.261l-.231.634q-.144-.032-.292-.051V.492c.122-.052.2-.125.2-.205C5.215.128,4.922,0,4.56,0s-.655.128-.655.286c0,.08.076.153.2.205v.675q-.148.019-.292.051L3.581.584C3.678.493,3.725.4,3.7.323,3.643.174,3.324.154,2.984.278s-.572.344-.517.493c.028.076.124.118.256.125l.231.634q-.132.069-.256.148l-.434-.517c.06-.118.072-.223.02-.285-.1-.121-.409-.031-.686.2s-.419.519-.317.64c.052.062.157.068.284.03L2,2.265q-.1.109-.19.227l-.585-.338c.016-.132-.009-.234-.078-.274C1.008,1.8.75,1.991.569,2.3s-.216.631-.079.71c.07.04.171.011.277-.069l.584.337q-.056.136-.1.278L.585,3.443C.556,3.314.5,3.227.418,3.213c-.156-.027-.333.239-.4.6s.013.667.168.694c.079.014.164-.048.237-.16l.665.117c0,.049,0,.1,0,.148s0,.1,0,.148l-.665.117C.354,4.762.27,4.7.19,4.714c-.156.027-.231.338-.168.695s.24.622.4.595c.079-.014.138-.1.168-.231l.664-.117q.045.142.1.278l-.584.337C.661,6.191.56,6.161.49,6.2c-.137.079-.1.4.079.71s.438.5.575.424c.07-.04.095-.142.078-.274l.585-.337q.09.117.19.227l-.434.517c-.127-.039-.232-.032-.284.03-.1.121.04.408.317.64s.584.323.686.2c.052-.062.04-.166-.02-.285L2.7,7.538q.125.08.256.148l-.231.634c-.133.007-.229.049-.257.125-.054.149.178.369.517.493s.659.1.713-.045c.028-.076-.019-.17-.116-.26L3.812,8q.144.032.292.051v.675c-.122.052-.2.125-.2.205,0,.158.293.286.655.286s.655-.128.655-.286c0-.081-.076-.153-.2-.205V8.05Q5.164,8.03,5.308,8l.231.634c-.1.091-.144.185-.116.26.054.149.373.169.713.045s.571-.344.517-.493c-.028-.076-.124-.118-.256-.125l-.231-.634q.132-.069.256-.148l.434.517c-.06.119-.072.223-.02.285.1.121.409.031.686-.2s.419-.519.317-.64c-.052-.062-.157-.068-.284-.03l-.434-.517q.1-.109.19-.227l.585.337c-.016.132.009.234.078.274.137.079.395-.111.575-.424s.216-.631.08-.71c-.07-.04-.171-.011-.277.069l-.584-.337q.056-.136.1-.278l.664.117c.03.129.088.217.168.231.156.027.333-.239.4-.595s-.013-.667-.168-.695" transform="translate(32.686 25.12)" fill="#eb0065"/>
      <path id="Fill_58" data-name="Fill 58" d="M3.446,1.819c-.03-.005-.063.019-.091.062L3.1,1.835c0-.019,0-.038,0-.057s0-.038,0-.057l.257-.045c.028.043.061.067.091.062.06-.011.089-.131.065-.268s-.093-.24-.153-.23c-.031.005-.053.039-.065.089l-.256.045Q3.021,1.319,3,1.267l.225-.13c.041.031.08.042.107.027.053-.031.039-.153-.031-.274S3.131.7,3.078.726c-.027.016-.036.055-.03.106l-.226.13C2.8.931,2.774.9,2.749.874l.168-.2c.049.015.089.012.109-.011C3.065.616,3.01.506,2.9.416S2.678.291,2.639.338c-.02.024-.016.064.008.11l-.167.2Q2.431.617,2.38.59L2.469.346c.051,0,.088-.019.1-.048C2.589.24,2.5.155,2.368.107s-.254-.04-.275.018c-.011.029.007.065.045.1L2.049.47Q1.993.458,1.936.45V.189c.047-.02.076-.048.076-.079C2.013.049,1.9,0,1.76,0s-.253.049-.253.11c0,.031.03.059.077.079V.45c-.038.005-.076.012-.113.02L1.382.225c.037-.035.056-.071.045-.1C1.406.067,1.283.059,1.152.107S.931.24.952.3c.011.029.048.045.1.048L1.14.59q-.051.027-.1.057L.874.448C.9.4.9.362.881.338.842.291.724.326.617.416S.455.616.494.663C.514.687.555.689.6.675l.168.2C.746.9.721.931.7.962L.472.831C.478.781.469.741.442.726.389.7.29.768.22.889s-.083.244-.031.274c.027.015.066,0,.107-.027l.225.13Q.5,1.319.482,1.374L.226,1.329C.214,1.279.192,1.245.161,1.24c-.06-.011-.129.092-.153.23s0,.258.065.268c.031.005.063-.019.091-.062l.257.045c0,.019,0,.038,0,.057s0,.038,0,.057l-.257.045C.137,1.838.1,1.814.073,1.819c-.06.011-.089.131-.065.268s.093.24.153.23c.031-.005.053-.039.065-.089l.256-.045q.017.055.039.107L.3,2.42c-.041-.031-.08-.042-.107-.027-.053.03-.039.153.031.274s.169.194.222.164c.027-.016.036-.055.03-.106L.7,2.6q.035.045.074.087l-.168.2C.555,2.867.514,2.87.494,2.893c-.039.047.016.158.123.247s.225.125.265.078C.9,3.195.9,3.154.874,3.109l.167-.2q.048.031.1.057l-.089.244c-.051,0-.088.019-.1.048-.021.057.068.142.2.19s.254.04.275-.017c.011-.029-.008-.066-.045-.1l.089-.245c.037.008.074.015.113.02v.26c-.047.02-.077.048-.077.079,0,.061.113.111.253.111s.253-.049.253-.111c0-.031-.029-.059-.076-.079v-.26c.038,0,.076-.012.113-.02l.089.245c-.038.035-.056.072-.045.1.021.058.144.065.275.017s.221-.133.2-.19c-.011-.029-.048-.045-.1-.048L2.38,2.966q.051-.027.1-.057l.167.2c-.023.046-.028.086-.008.11.039.047.158.012.265-.078s.162-.2.123-.247c-.02-.024-.06-.026-.109-.011l-.168-.2c.026-.028.05-.057.074-.087l.226.13c-.006.051,0,.09.03.106.053.03.152-.043.222-.164s.083-.244.031-.274c-.027-.015-.066,0-.107.027L3,2.29q.022-.053.039-.107l.256.045c.012.05.034.084.065.089.06.011.129-.092.153-.23s0-.258-.065-.268" transform="translate(45.604 40.127)" fill="#eb0065"/>
      <path id="Fill_61" data-name="Fill 61" d="M3.446,1.819c-.03-.005-.063.019-.091.062L3.1,1.835c0-.019,0-.038,0-.057s0-.038,0-.057l.257-.045c.028.043.061.067.091.062.06-.011.089-.131.065-.268s-.093-.24-.153-.23c-.031.005-.053.039-.065.089l-.256.045C3.026,1.338,3.013,1.3,3,1.267l.225-.13c.041.031.08.042.107.027.053-.03.039-.153-.031-.274S3.131.7,3.078.726c-.027.015-.036.055-.03.106l-.226.13Q2.787.916,2.749.874l.168-.2c.049.015.089.013.109-.011C3.065.616,3.01.506,2.9.416S2.678.292,2.639.338c-.02.024-.015.064.008.11l-.168.2Q2.431.617,2.38.59L2.469.346c.051,0,.088-.019.1-.048C2.589.24,2.5.155,2.368.107s-.254-.04-.275.018c-.011.029.007.066.045.1L2.049.47Q1.993.458,1.936.45V.19c.047-.02.076-.048.076-.079C2.013.049,1.9,0,1.76,0s-.253.049-.253.111c0,.031.029.059.076.079V.45q-.057.008-.113.02L1.382.225c.038-.035.056-.071.045-.1C1.406.067,1.283.06,1.152.107S.931.24.952.3c.011.029.048.046.1.048L1.14.59q-.051.027-.1.057L.874.448C.9.4.9.362.881.338.842.292.724.326.617.416S.455.616.494.663C.514.687.555.69.6.675l.168.2Q.733.916.7.962L.472.832C.478.781.469.741.442.726.389.7.29.768.22.889s-.083.244-.031.274c.027.016.066,0,.107-.027l.225.13c-.015.035-.028.071-.039.107L.226,1.329C.214,1.279.192,1.245.161,1.24c-.06-.011-.129.092-.153.23s0,.258.065.268c.03.005.063-.019.091-.062l.257.045c0,.019,0,.038,0,.057s0,.038,0,.057l-.257.045C.137,1.838.1,1.814.074,1.819c-.06.011-.089.131-.065.268s.093.24.153.23c.031-.005.053-.039.065-.089l.256-.045c.012.037.025.072.039.108L.3,2.42c-.041-.031-.08-.042-.107-.027-.053.03-.039.153.031.274s.169.194.222.164c.027-.016.036-.055.03-.106L.7,2.6c.023.03.048.06.074.087l-.168.2C.555,2.867.514,2.87.494,2.894c-.039.047.016.157.123.247s.225.125.265.078C.9,3.195.9,3.154.874,3.109l.168-.2q.048.03.1.057l-.089.244c-.051,0-.088.019-.1.048-.021.057.068.143.2.19s.254.04.275-.017c.011-.029-.007-.066-.045-.1l.089-.245q.056.012.113.02v.26c-.047.02-.076.048-.076.079,0,.061.113.111.253.111s.253-.05.253-.111c0-.031-.029-.059-.076-.079v-.26q.057-.008.113-.02l.089.245c-.038.035-.056.071-.045.1.021.057.144.065.275.017s.221-.133.2-.19c-.011-.029-.048-.045-.1-.048L2.38,2.966q.051-.027.1-.057l.168.2c-.023.046-.028.086-.008.11.039.047.158.012.265-.078s.162-.2.123-.247c-.02-.024-.06-.027-.109-.011l-.168-.2c.026-.028.05-.057.074-.087l.226.13c-.006.051,0,.09.03.106.053.03.152-.043.222-.164s.083-.244.031-.274c-.027-.016-.066,0-.107.027L3,2.29c.015-.035.028-.071.039-.108l.256.045c.012.05.034.084.065.089.06.011.129-.092.153-.23s0-.257-.065-.268" transform="translate(46.172 33.974)" fill="#eb0065"/>
      <path id="Fill_64" data-name="Fill 64" d="M3.446,1.819c-.03-.005-.063.019-.091.062L3.1,1.835c0-.019,0-.038,0-.057s0-.038,0-.057l.256-.045c.028.043.061.067.091.062.06-.011.089-.131.065-.268s-.093-.24-.153-.23c-.031.005-.053.039-.065.089l-.256.045Q3.02,1.319,3,1.267l.225-.13c.041.031.08.042.107.027.053-.031.039-.153-.031-.274S3.131.7,3.078.726c-.027.016-.036.055-.03.106l-.226.13C2.8.931,2.774.9,2.749.874l.168-.2c.049.015.089.012.11-.011C3.065.616,3.01.506,2.9.416S2.678.291,2.638.338c-.02.024-.015.064.008.11l-.167.2Q2.431.617,2.38.59L2.469.346c.051,0,.088-.019.1-.048C2.589.24,2.5.155,2.368.107s-.255-.04-.275.018c-.011.029.007.065.045.1L2.049.47Q1.993.458,1.936.45V.189c.047-.02.077-.048.077-.079C2.013.049,1.9,0,1.76,0s-.253.049-.253.11c0,.031.03.059.077.079V.45c-.038.005-.076.012-.113.02L1.382.225c.037-.035.055-.071.045-.1C1.406.067,1.283.059,1.152.107S.931.24.952.3c.011.029.048.045.1.048L1.14.59q-.051.027-.1.057L.874.448C.9.4.9.362.881.338.842.291.724.326.617.416S.455.616.494.663C.514.687.555.689.6.675l.168.2C.745.9.721.931.7.962L.472.831C.478.781.469.741.442.726.389.7.289.768.22.889s-.083.244-.031.274c.027.015.066,0,.107-.027l.225.13c-.014.035-.028.071-.039.107L.226,1.329C.214,1.279.192,1.245.161,1.24c-.06-.011-.129.092-.153.23s0,.258.065.268c.031.005.063-.019.091-.062l.257.045c0,.019,0,.038,0,.057s0,.038,0,.057l-.257.045C.137,1.838.1,1.814.073,1.819c-.06.011-.089.131-.065.268s.093.24.153.23c.031-.005.053-.039.065-.089l.256-.045c.011.037.025.072.039.107L.3,2.42c-.041-.031-.08-.042-.107-.027-.053.03-.039.153.031.274s.169.194.222.164c.027-.016.036-.055.03-.106L.7,2.6q.035.045.074.087l-.168.2C.555,2.867.514,2.87.494,2.893c-.039.047.016.158.123.247s.225.125.265.078C.9,3.195.9,3.154.874,3.109l.167-.2q.048.031.1.057l-.089.244c-.051,0-.089.019-.1.048-.021.057.069.142.2.19s.254.04.275-.017c.011-.029-.007-.066-.045-.1l.089-.245c.037.008.074.015.113.02v.26c-.047.02-.077.048-.077.079,0,.061.113.111.253.111s.253-.049.253-.111c0-.031-.03-.059-.077-.079v-.26c.038,0,.076-.012.113-.02l.089.245c-.038.035-.056.071-.045.1.021.058.144.065.275.017s.22-.133.2-.19c-.011-.029-.048-.045-.1-.048L2.38,2.966q.051-.027.1-.057l.167.2c-.023.046-.028.086-.008.11.039.047.158.012.265-.078s.162-.2.123-.247c-.02-.024-.061-.026-.11-.011l-.168-.2q.039-.042.074-.087l.226.13c-.006.051,0,.09.03.106.053.03.152-.043.222-.164s.083-.244.031-.274c-.027-.015-.066,0-.107.027L3,2.29q.022-.053.039-.107l.256.045c.012.05.034.084.065.089.06.011.129-.092.153-.23s0-.258-.065-.268" transform="translate(65.036 36.849)" fill="#eb0065"/>
      <path id="Fill_67" data-name="Fill 67" d="M3.446,1.819c-.03-.005-.063.019-.091.062L3.1,1.835c0-.019,0-.038,0-.057s0-.038,0-.057l.256-.045c.028.043.061.067.091.062.06-.011.089-.131.065-.268s-.093-.24-.153-.23c-.031.005-.053.039-.065.089l-.256.045C3.026,1.338,3.013,1.3,3,1.267l.225-.13c.041.031.08.042.107.027.053-.031.039-.153-.031-.274S3.131.7,3.078.726c-.027.016-.036.055-.03.106l-.226.13C2.8.931,2.774.9,2.749.874l.168-.2c.049.015.089.012.109-.011C3.065.616,3.01.506,2.9.416S2.678.291,2.638.338c-.02.024-.015.064.008.11l-.167.2Q2.431.617,2.38.59L2.469.346c.051,0,.089-.019.1-.048C2.589.24,2.5.155,2.368.107s-.255-.04-.276.018c-.011.029.007.066.045.1L2.049.47C2.012.462,1.974.455,1.936.45V.189c.047-.02.077-.048.077-.079C2.013.049,1.9,0,1.76,0s-.253.049-.253.11c0,.031.03.059.077.079V.45q-.057.008-.113.02L1.382.225c.037-.035.055-.071.045-.1C1.406.067,1.283.059,1.151.107S.931.24.952.3c.011.029.048.045.1.048L1.14.59q-.051.027-.1.057L.874.448C.9.4.9.362.881.338.842.291.724.326.617.416S.455.616.494.663C.514.687.555.689.6.675l.168.2C.745.9.721.931.7.962L.472.832C.478.781.469.741.442.726.389.7.289.768.22.889s-.083.244-.031.274c.027.015.066,0,.107-.027l.225.13c-.014.035-.028.071-.039.107L.226,1.329C.214,1.279.192,1.245.161,1.24c-.06-.011-.129.092-.153.23s0,.258.065.268c.03.005.063-.019.091-.062l.256.045c0,.019,0,.038,0,.057s0,.038,0,.057l-.256.045C.137,1.838.1,1.814.073,1.819c-.06.011-.089.131-.065.268s.093.24.153.23c.031-.005.053-.039.065-.089l.256-.045c.011.037.025.072.039.107L.3,2.42c-.041-.031-.08-.042-.107-.027-.053.03-.039.153.031.274s.169.194.222.164c.027-.016.036-.055.03-.106L.7,2.6q.035.045.074.087l-.168.2C.555,2.867.514,2.87.494,2.893c-.039.047.016.158.123.247s.225.125.265.078C.9,3.195.9,3.154.874,3.109l.167-.2q.048.031.1.057l-.089.244c-.051,0-.089.019-.1.048-.021.057.069.143.2.19s.255.04.275-.017c.011-.029-.007-.066-.045-.1l.089-.245c.037.008.074.015.113.02v.26c-.047.02-.077.048-.077.079,0,.061.113.111.253.111s.253-.049.253-.111c0-.031-.03-.059-.077-.079v-.26c.038,0,.076-.012.113-.02l.089.245c-.037.035-.055.071-.045.1.021.058.144.065.276.017s.22-.133.2-.19c-.011-.029-.048-.045-.1-.048L2.38,2.966q.051-.027.1-.057l.167.2c-.023.046-.028.086-.008.11.039.047.158.012.265-.078s.162-.2.123-.247c-.02-.024-.06-.026-.109-.011l-.168-.2q.039-.042.074-.087l.226.13c-.006.051,0,.09.03.106.053.03.152-.043.222-.164s.083-.244.031-.274c-.027-.015-.066,0-.107.027L3,2.29c.014-.035.028-.071.039-.107l.256.045c.012.05.034.084.065.089.06.011.129-.092.153-.23s0-.258-.065-.268" transform="translate(69.403 31.931)" fill="#eb0065"/>
      <path id="Fill_70" data-name="Fill 70" d="M3.446,1.819c-.03-.005-.063.019-.091.062L3.1,1.835c0-.019,0-.038,0-.057s0-.038,0-.057l.256-.045c.028.043.061.067.091.062.06-.011.089-.131.065-.268s-.093-.24-.153-.23c-.031.005-.053.039-.065.089l-.256.045C3.026,1.338,3.013,1.3,3,1.267l.225-.13c.041.031.08.042.107.027.053-.031.039-.153-.031-.274S3.131.7,3.078.726c-.027.016-.036.055-.03.106l-.226.13C2.8.931,2.774.9,2.749.874l.168-.2c.049.015.089.012.109-.011C3.065.616,3.01.506,2.9.416S2.678.291,2.638.338c-.02.024-.015.064.008.11l-.167.2Q2.431.617,2.38.59L2.469.346c.051,0,.089-.019.1-.048C2.589.24,2.5.155,2.368.107s-.255-.04-.276.018c-.011.029.007.065.045.1L2.049.47C2.012.462,1.974.455,1.936.45V.189c.047-.02.077-.048.077-.079C2.013.049,1.9,0,1.76,0s-.253.049-.253.11c0,.031.03.059.077.079V.45q-.057.008-.113.02L1.382.225c.037-.035.055-.071.045-.1C1.406.067,1.283.059,1.151.107S.931.24.952.3c.011.029.048.045.1.048L1.14.59q-.051.027-.1.057L.874.448C.9.4.9.362.881.338.842.291.724.326.617.416S.455.616.494.663C.514.687.555.689.6.675l.168.2C.745.9.721.931.7.962L.472.831C.478.781.469.741.442.726.389.7.289.768.22.889s-.083.244-.031.274c.027.015.066,0,.107-.027l.225.13c-.014.035-.028.071-.039.107L.226,1.329C.214,1.279.192,1.245.161,1.24c-.06-.011-.129.092-.153.23s0,.257.065.268c.03.005.063-.019.091-.062l.256.045c0,.019,0,.038,0,.057s0,.038,0,.057l-.256.045C.137,1.838.1,1.814.073,1.819c-.06.011-.089.131-.065.268s.093.24.153.23c.031-.005.053-.039.065-.089l.256-.045c.011.037.025.072.039.107L.3,2.42c-.041-.031-.08-.042-.107-.027-.053.03-.039.153.031.274s.169.194.222.164c.027-.016.036-.055.03-.106L.7,2.595q.035.045.074.088l-.168.2C.555,2.867.514,2.87.494,2.893c-.039.047.016.158.123.247s.225.125.265.078C.9,3.195.9,3.154.874,3.109l.167-.2q.048.031.1.057l-.089.244c-.051,0-.088.019-.1.048-.021.057.069.142.2.19s.255.04.275-.017c.011-.029-.007-.066-.045-.1l.089-.245c.037.008.074.015.113.02v.26c-.047.02-.077.048-.077.079,0,.061.113.111.253.111s.253-.049.253-.111c0-.031-.03-.059-.077-.079v-.26c.038,0,.076-.012.113-.02l.089.245c-.037.035-.055.072-.045.1.021.057.144.065.276.017s.22-.133.2-.19c-.011-.029-.048-.045-.1-.048L2.38,2.966q.051-.027.1-.057l.167.2c-.023.046-.028.086-.008.11.039.047.158.012.265-.078s.162-.2.123-.247c-.02-.024-.06-.026-.109-.011l-.168-.2q.039-.042.074-.088l.226.13c-.006.051,0,.09.03.106.053.03.152-.043.222-.164s.083-.244.031-.274c-.027-.015-.066,0-.107.027L3,2.29c.014-.035.028-.071.039-.107l.256.045c.012.05.034.084.065.089.06.011.129-.092.153-.23s0-.258-.065-.268" transform="translate(75.381 38.955)" fill="#eb0065"/>
      <path id="Fill_73" data-name="Fill 73" d="M16.412,8.663c-.146-.026-.3.089-.435.294l-1.222-.215c0-.09.006-.181.006-.272s0-.182-.006-.272l1.222-.215c.133.2.289.319.435.294.286-.051.425-.622.309-1.277S16.28,5.854,15.994,5.9c-.146.026-.253.187-.308.424l-1.22.215q-.082-.261-.186-.512l1.073-.62c.2.147.381.2.509.127.252-.145.186-.73-.146-1.305s-.806-.924-1.057-.779c-.128.074-.174.262-.144.5l-1.075.62q-.166-.216-.35-.417l.8-.95c.234.071.426.059.521-.054.187-.223-.074-.75-.583-1.177s-1.073-.593-1.26-.37c-.1.113-.074.305.037.523l-.8.95q-.229-.146-.471-.272l.424-1.165c.244-.013.421-.091.471-.23.1-.273-.326-.679-.951-.906S10.066.321,9.967.594c-.051.139.035.312.213.479L9.756,2.238C9.58,2.2,9.4,2.167,9.22,2.144V.9c.225-.1.364-.229.364-.377C9.585.236,9.046,0,8.381,0s-1.2.236-1.2.526c0,.148.14.281.364.377v1.24c-.181.024-.36.055-.536.094L6.582,1.073C6.76.906,6.846.733,6.8.594,6.7.321,6.109.283,5.484.511s-1.05.633-.951.906c.051.139.228.217.471.23l.424,1.165q-.242.126-.471.272l-.8-.95c.111-.218.132-.41.037-.523-.187-.223-.751-.057-1.26.37s-.77.954-.584,1.177c.1.113.288.126.521.054l.8.95q-.184.2-.35.417L2.249,3.96c.029-.242-.016-.43-.144-.5-.252-.145-.725.2-1.058.779S.649,5.395.9,5.54c.128.074.314.02.509-.127l1.073.62q-.1.251-.186.512l-1.22-.215C1.021,6.091.914,5.93.768,5.9.482,5.854.156,6.344.041,7S.064,8.225.35,8.275c.146.026.3-.089.435-.294L2.007,8.2C2,8.287,2,8.378,2,8.469s0,.182.006.272L.785,8.957C.651,8.752.5,8.637.35,8.663c-.286.05-.425.622-.309,1.277s.441,1.144.727,1.094c.146-.026.253-.187.308-.424l1.22-.215q.082.261.186.512l-1.073.62c-.2-.147-.381-.2-.509-.127-.252.145-.186.73.146,1.305s.806.924,1.058.779c.128-.074.174-.262.144-.5l1.074-.62q.166.216.35.417l-.8.951c-.233-.071-.426-.059-.521.054-.187.223.074.75.584,1.177s1.073.593,1.26.37c.1-.113.074-.305-.037-.523l.8-.95q.229.146.471.272l-.424,1.165c-.244.013-.421.091-.471.23-.1.273.326.679.951.906s1.212.19,1.311-.083c.05-.139-.035-.312-.214-.479L7.006,14.7q.264.058.536.094v1.24c-.225.1-.364.229-.364.377,0,.291.539.527,1.2.527s1.2-.236,1.2-.527c0-.148-.14-.281-.364-.377v-1.24q.272-.036.536-.094l.424,1.165c-.178.167-.264.34-.213.479.1.273.686.31,1.311.083s1.05-.633.951-.906c-.05-.139-.228-.217-.471-.23l-.424-1.165q.242-.127.471-.272l.8.95c-.111.218-.132.41-.037.523.187.223.751.057,1.26-.37s.77-.954.583-1.177c-.1-.113-.288-.126-.521-.054l-.8-.951q.184-.2.35-.417l1.075.62c-.029.242.016.43.144.5.252.145.725-.2,1.057-.779s.4-1.16.146-1.305c-.128-.074-.314-.02-.509.127l-1.073-.62q.1-.25.186-.512l1.22.215c.055.238.162.4.308.424.286.05.612-.439.728-1.094s-.023-1.226-.309-1.277" transform="translate(49.692 18.289)" fill="#eb0065"/>
      <path id="Fill_76" data-name="Fill 76" d="M12.083,6.378c-.107-.019-.222.065-.32.216l-.9-.159c0-.066,0-.133,0-.2s0-.134,0-.2l.9-.159c.1.151.213.235.32.216.211-.037.313-.458.228-.94s-.325-.843-.535-.805c-.107.019-.186.137-.227.313l-.9.158q-.061-.192-.137-.377l.79-.456c.144.108.28.148.375.094.185-.107.137-.537-.107-.961s-.593-.68-.779-.574c-.094.054-.128.193-.106.371l-.791.457q-.123-.159-.258-.307l.587-.7c.172.052.314.043.384-.04.138-.164-.055-.552-.43-.866s-.79-.437-.928-.273c-.07.083-.054.225.027.385l-.587.7q-.169-.107-.347-.2l.312-.858c.179-.01.31-.067.347-.169.073-.2-.24-.5-.7-.667s-.892-.14-.965.061c-.037.1.026.23.157.352l-.312.858q-.194-.043-.395-.069V.665c.165-.07.268-.169.268-.278C7.056.174,6.66,0,6.171,0s-.886.174-.886.388c0,.109.1.207.268.278v.913q-.2.026-.395.069L4.846.79C4.977.667,5.04.539,5,.437,4.93.236,4.5.209,4.038.376s-.773.466-.7.667c.037.1.168.159.347.169L4,2.07q-.178.093-.347.2l-.587-.7c.081-.16.1-.3.027-.385-.138-.164-.553-.042-.928.273s-.567.7-.43.866c.07.083.212.093.384.04l.587.7q-.135.148-.257.307l-.791-.457c.022-.178-.012-.317-.106-.371-.185-.107-.534.15-.779.574s-.293.854-.107.961c.094.054.231.014.374-.094l.79.456q-.076.185-.137.377l-.9-.158c-.041-.175-.12-.294-.227-.313C.355,4.31.115,4.671.03,5.153s.017.9.228.94c.107.019.222-.066.32-.216l.9.159c0,.067,0,.133,0,.2s0,.134,0,.2l-.9.159c-.1-.151-.213-.235-.32-.216-.211.037-.313.458-.228.94s.325.842.535.805c.107-.019.186-.137.227-.312l.9-.158q.06.192.137.377l-.79.456c-.144-.108-.28-.148-.374-.094-.186.107-.137.537.107.961s.593.68.779.573c.094-.054.128-.193.106-.371L2.447,9.1q.122.159.257.307l-.587.7c-.172-.052-.314-.043-.384.04-.138.164.055.552.43.866s.79.437.928.273c.07-.083.054-.225-.027-.385l.587-.7q.169.108.347.2l-.312.858c-.179.01-.31.067-.347.169-.073.2.24.5.7.667s.892.14.965-.061c.037-.1-.026-.23-.157-.353l.312-.858q.194.043.395.069v.913c-.165.07-.268.169-.268.278,0,.214.4.388.886.388s.886-.174.886-.388c0-.109-.1-.207-.268-.278v-.913q.2-.026.395-.069l.312.858c-.131.123-.195.25-.157.353.073.2.505.229.965.061s.773-.466.7-.667c-.037-.1-.168-.159-.347-.169L8.344,10.4q.178-.093.347-.2l.587.7c-.081.16-.1.3-.027.385.137.164.553.042.928-.273s.567-.7.43-.866c-.07-.083-.212-.092-.384-.04l-.587-.7q.135-.148.258-.307l.791.457c-.022.178.012.317.106.371.185.107.534-.15.779-.573s.293-.854.107-.961c-.094-.054-.231-.014-.375.094l-.79-.456q.076-.185.137-.377l.9.158c.04.175.119.294.227.312.211.037.451-.323.535-.805s-.017-.9-.228-.94" transform="translate(29.465 61.919)" fill="#eb0065"/>
    </g>
  </g>
</svg>
