<svg xmlns="http://www.w3.org/2000/svg" xmlns:xlink="http://www.w3.org/1999/xlink" width="107.495" height="108.303" viewBox="0 0 107.495 108.303">
  <defs>
    <clipPath id="clip-path">
      <path id="Clip_2" data-name="Clip 2" d="M0,54.152A53.95,53.95,0,0,0,53.748,108.3h0a53.95,53.95,0,0,0,53.747-54.151h0A53.951,53.951,0,0,0,53.748,0h0A53.951,53.951,0,0,0,0,54.152" transform="translate(0.236 0.271)" fill="none"/>
    </clipPath>
  </defs>
  <g id="Cough" transform="translate(-0.236 -0.271)">
    <g id="Group_3" data-name="Group 3">
      <path id="Clip_2-2" data-name="Clip 2" d="M0,54.152A53.95,53.95,0,0,0,53.748,108.3h0a53.95,53.95,0,0,0,53.747-54.151h0A53.951,53.951,0,0,0,53.748,0h0A53.951,53.951,0,0,0,0,54.152" transform="translate(0.236 0.271)" fill="none"/>
      <g id="Group_3-2" data-name="Group 3" clip-path="url(#clip-path)">
        <path id="Fill_1" data-name="Fill 1" d="M138.148,69.593c0,38.435-30.926,69.593-69.074,69.593S0,108.029,0,69.593,30.926,0,69.074,0s69.074,31.158,69.074,69.593" transform="translate(-15.09 -15.171)" fill="#e4e5f7"/>
      </g>
    </g>
    <g id="Group_6" data-name="Group 6" transform="translate(24 15)">
      <path id="Fill_4" data-name="Fill 4" d="M9.692,49.376C7.893,46.441-.9,38.594.076,27.2.352,23.989,1.2,14.162,8.738,6.814A23.055,23.055,0,0,1,21.074.2c8.206-1.379,17.585,4.682,17.585,4.682s2.165,2.054,2.625,2.479c2.551,2.354,5.211,3.071,6.562,3.856,5.369,3.12,4.459,15.7,4.2,19.28-.63,8.709-7.009,14.406-9.564,18.73,1.168-2.92,6.258-7.484,5.627-14.6-.351-3.958-1.157-13.046-7.612-17.352C35.819,14.16,30.541,15.13,26.323,15.9,16.117,17.778,9.115,24.163,5.588,28.023,4.6,30.791,7.4,34.891,7.855,40.837a32.231,32.231,0,0,0,1.837,8.539" transform="translate(0.991 0.273)" fill="#262c7c"/>
    </g>
    <path id="Clip_8-2" data-name="Clip 8" d="M0,54.152A53.95,53.95,0,0,0,53.748,108.3h0a53.95,53.95,0,0,0,53.747-54.151h0A53.951,53.951,0,0,0,53.748,0h0A53.951,53.951,0,0,0,0,54.152" transform="translate(0.236 0.271)" fill="none"/>
    <g id="Mask_Group_2" data-name="Mask Group 2" clip-path="url(#clip-path)">
      <path id="Fill_7" data-name="Fill 7" d="M.006,11.188c-.16-.267,2.814-3.064,7.05-5.222,3.8-1.933,6.714-2.392,6.635-2.9-.072-.463-2.567-.633-4.976-.145C5.34,3.6,3.34,5.336,3.186,5.1S4.9,2.692,7.748,1.324A15.8,15.8,0,0,1,15.489.018a26.017,26.017,0,0,1,9.4,2.031,47.96,47.96,0,0,0-8.571,1.6C6.531,6.408.234,11.568.006,11.188" transform="translate(35.702 18.486)" fill="#8591ff"/>
      <path id="Fill_10" data-name="Fill 10" d="M13.518,4.478A33,33,0,0,1,7.508,7.7,32.851,32.851,0,0,1,0,9.777L.509,0H13.154Z" transform="translate(45.75 70.51)" fill="#9195cb"/>
      <path id="Fill_13" data-name="Fill 13" d="M14.51,9.518H0L.219,5.3A32.871,32.871,0,0,0,7.727,3.226,32.991,32.991,0,0,0,13.737,0Z" transform="translate(45.531 74.988)" fill="#e4e5f7"/>
      <path id="Fill_16" data-name="Fill 16" d="M4.677,12.532A6.438,6.438,0,0,1,5.321,0" transform="translate(25.301 42.759)" fill="#9195cb"/>
      <path id="Fill_19" data-name="Fill 19" d="M2.554,12.4A6.43,6.43,0,0,0,6.561,6.428,6.4,6.4,0,0,0,.18,0,1.739,1.739,0,0,0,0,.006" transform="translate(71.648 39.533)" fill="#9195cb"/>
      <path id="Fill_22" data-name="Fill 22" d="M44.875,22.606A22.438,22.438,0,1,1,22.437,0,22.522,22.522,0,0,1,44.875,22.606" transform="translate(29.395 27.541)" fill="#bec1e0"/>
      <path id="Fill_25" data-name="Fill 25" d="M7.05,1.515A5.343,5.343,0,0,1,3.523,2.839,5.341,5.341,0,0,1,0,1.515a4.858,4.858,0,0,1,7.05,0" transform="translate(48.307 58.85)" fill="#e4e5f7"/>
      <path id="Fill_28" data-name="Fill 28" d="M8.242,2.272A4.879,4.879,0,0,1,4.119,4.543,4.878,4.878,0,0,1,0,2.272a4.874,4.874,0,0,1,8.242,0" transform="translate(47.711 64.172)" fill="#6468a1"/>
      <path id="Fill_31" data-name="Fill 31" d="M9.788,3.417a4.928,4.928,0,0,1-.773,2.661,4.874,4.874,0,0,0-8.242,0A4.957,4.957,0,0,1,1.369,0,5.341,5.341,0,0,0,4.892,1.324,5.343,5.343,0,0,0,8.419,0,4.914,4.914,0,0,1,9.788,3.417" transform="translate(46.938 60.366)" fill="#131856"/>
      <path id="Stroke_34" data-name="Stroke 34" d="M0,4.7a9.082,9.082,0,0,0,4.669-.941A9.22,9.22,0,0,0,8.559,0" transform="translate(36.972 32.79)" fill="none" stroke="#262c7c" stroke-linecap="round" stroke-miterlimit="10" stroke-width="1.4"/>
      <path id="Stroke_37" data-name="Stroke 37" d="M0,0A13.423,13.423,0,0,0,3.734,3.449,13.334,13.334,0,0,0,9.026,5.331" transform="translate(56.58 32.163)" fill="none" stroke="#262c7c" stroke-linecap="round" stroke-miterlimit="10" stroke-width="1.4"/>
      <path id="Stroke_40" data-name="Stroke 40" d="M0,0A5.324,5.324,0,0,0,2.645,1.411,5.308,5.308,0,0,0,5.758,1.1" transform="translate(56.113 41.413)" fill="none" stroke="#262c7c" stroke-linecap="round" stroke-miterlimit="10" stroke-width="1.4"/>
      <path id="Stroke_43" data-name="Stroke 43" d="M0,2.665a3.831,3.831,0,0,0,2.49-.157A4.041,4.041,0,0,0,4.668,0" transform="translate(39.618 40.473)" fill="none" stroke="#262c7c" stroke-linecap="round" stroke-miterlimit="10" stroke-width="1.4"/>
      <path id="Stroke_46" data-name="Stroke 46" d="M1.926,0C-.325,5.846-.628,10.833,1.148,12.386a4.642,4.642,0,0,0,2.334,1.1,4.226,4.226,0,0,0,2.8-.784" transform="translate(47.339 41.884)" fill="none" stroke="#262c7c" stroke-linecap="round" stroke-miterlimit="10" stroke-width="1.4"/>
      <path id="Fill_49" data-name="Fill 49" d="M79.942,30.47c-26.171.013-53.345,0-79.942,0C1.23,20.206,5.652,14.852,7.881,12.6c2.693-2.716,5.6-4.348,10.912-7.33,3.607-2.025,6.9-3.6,9.649-4.809a10.922,10.922,0,0,0,8.374,3.9A10.965,10.965,0,0,0,45.571,0,61.817,61.817,0,0,1,57.9,3.592c6.361,2.593,10.68,4.352,14.552,8.554,4.793,5.2,6.936,14.028,7.494,18.325" transform="translate(15.436 80.141)" fill="#262c7c"/>
      <path id="Stroke_52" data-name="Stroke 52" d="M0,1.527A18.785,18.785,0,0,0,9.7,3.665,18.873,18.873,0,0,0,19.855,0" transform="translate(43.93 85.719)" fill="none" stroke="#1b1464" stroke-linecap="round" stroke-miterlimit="10" stroke-width="8"/>
      <path id="Fill_55" data-name="Fill 55" d="M9.025,0A30.771,30.771,0,0,1,3.208,8.047,1.921,1.921,0,0,1,.5,7.973,1.993,1.993,0,0,1,.577,5.249C3.208,2.332,9.025,0,9.025,0" transform="translate(30.631 72.287)" fill="#eb0065"/>
      <path id="Fill_58" data-name="Fill 58" d="M11.622,2.317a30.339,30.339,0,0,1-9.76,1.546A1.939,1.939,0,0,1,0,1.885,1.974,1.974,0,0,1,1.965.01c3.908-.188,9.657,2.307,9.657,2.307" transform="translate(27.668 68.264)" fill="#eb0065"/>
      <path id="Fill_61" data-name="Fill 61" d="M2.3,0A30.97,30.97,0,0,1,3.834,9.834,1.937,1.937,0,0,1,1.87,11.708,1.975,1.975,0,0,1,.01,9.73C-.177,5.793,2.3,0,2.3,0" transform="translate(38.983 72.666)" fill="#eb0065"/>
    </g>
  </g>
</svg>
