<svg xmlns="http://www.w3.org/2000/svg" xmlns:xlink="http://www.w3.org/1999/xlink" width="107.946" height="107.946" viewBox="0 0 107.946 107.946">
  <defs>
    <clipPath id="clip-path">
      <path id="Clip_2" data-name="Clip 2" d="M0,53.973a53.973,53.973,0,0,0,53.973,53.973h0a53.973,53.973,0,0,0,53.973-53.973h0A53.973,53.973,0,0,0,53.973,0h0A53.973,53.973,0,0,0,0,53.973" transform="translate(0.011 0.512)" fill="none"/>
    </clipPath>
  </defs>
  <g id="Group_79" data-name="Group 79" transform="translate(-0.011 -0.512)">
    <path id="Clip_2-2" data-name="Clip 2" d="M0,53.973a53.973,53.973,0,0,0,53.973,53.973h0a53.973,53.973,0,0,0,53.973-53.973h0A53.973,53.973,0,0,0,53.973,0h0A53.973,53.973,0,0,0,0,53.973" transform="translate(0.011 0.512)" fill="none"/>
    <g id="Group_79-2" data-name="Group 79" clip-path="url(#clip-path)">
      <path id="Fill_1" data-name="Fill 1" d="M138.148,69.074A69.074,69.074,0,1,1,69.074,0a69.074,69.074,0,0,1,69.074,69.074" transform="translate(-15.09 -10.652)" fill="#e4e5f7"/>
      <path id="Fill_4" data-name="Fill 4" d="M10.3,52.1C8.391,49-.962,40.722.081,28.7.374,25.312,1.273,14.942,9.289,7.19A24.556,24.556,0,0,1,22.4.215C31.126-1.24,41.1,5.156,41.1,5.156s2.3,2.168,2.79,2.615c2.712,2.484,5.54,3.241,6.976,4.069,5.708,3.292,4.74,16.562,4.465,20.343-.67,9.189-7.451,15.2-10.167,19.762,1.242-3.081,6.653-7.9,5.981-15.4-.373-4.176-1.23-13.765-8.092-18.309-4.973-3.293-10.584-2.27-15.068-1.453C17.134,18.758,9.69,25.5,5.94,29.568c-1.052,2.921,1.93,7.247,2.41,13.521A33.816,33.816,0,0,0,10.3,52.1" transform="translate(25.47 7.191)" fill="#262c7c"/>
    </g>
    <path id="Clip_8-2" data-name="Clip 8" d="M0,53.973a53.973,53.973,0,0,0,53.973,53.973h0a53.973,53.973,0,0,0,53.973-53.973h0A53.973,53.973,0,0,0,53.973,0h0A53.973,53.973,0,0,0,0,53.973" transform="translate(0.011 0.512)" fill="none"/>
    <g id="Group_79-3" data-name="Group 79" clip-path="url(#clip-path)">
      <path id="Fill_7" data-name="Fill 7" d="M.007,11.805C-.164,11.523,3,8.572,7.5,6.3c4.035-2.04,7.138-2.523,7.054-3.061-.077-.489-2.73-.668-5.291-.153C5.676,3.8,3.551,5.63,3.387,5.377S5.213,2.84,8.236,1.4A16.907,16.907,0,0,1,16.466.019a27.838,27.838,0,0,1,9.993,2.143,51.352,51.352,0,0,0-9.111,1.684C6.943,6.761.249,12.206.007,11.805" transform="translate(36.856 10.581)" fill="#8591ff"/>
      <path id="Fill_10" data-name="Fill 10" d="M14.37,4.725a35.146,35.146,0,0,1-6.389,3.4A35.114,35.114,0,0,1,0,10.316L.541,0H13.983Z" transform="translate(47.599 65.398)" fill="#9195cb"/>
      <path id="Fill_13" data-name="Fill 13" d="M15.425,10.042H0L.233,5.591A35.132,35.132,0,0,0,8.214,3.4,35.166,35.166,0,0,0,14.6,0Z" transform="translate(47.366 70.123)" fill="#e4e5f7"/>
      <path id="Fill_16" data-name="Fill 16" d="M4.972,13.223A6.782,6.782,0,0,1,5.656,0" transform="translate(25.861 36.117)" fill="#9195cb"/>
      <path id="Fill_19" data-name="Fill 19" d="M2.715,13.079A6.783,6.783,0,0,0,.192,0,1.808,1.808,0,0,0,0,.007" transform="translate(75.131 32.714)" fill="#9195cb"/>
      <path id="Fill_22" data-name="Fill 22" d="M47.7,23.852A23.852,23.852,0,1,1,23.853,0,23.852,23.852,0,0,1,47.7,23.852" transform="translate(30.213 20.061)" fill="#bec1e0"/>
      <path id="Fill_25" data-name="Fill 25" d="M7.495,1.6A5.706,5.706,0,0,1,3.746,3,5.7,5.7,0,0,1,0,1.6a5.191,5.191,0,0,1,7.495,0" transform="translate(50.318 53.096)" fill="#e4e5f7"/>
      <path id="Fill_28" data-name="Fill 28" d="M8.762,2.4a5.2,5.2,0,0,1-4.383,2.4A5.2,5.2,0,0,1,0,2.4a5.2,5.2,0,0,1,8.762,0" transform="translate(49.684 58.711)" fill="#6468a1"/>
      <path id="Fill_31" data-name="Fill 31" d="M10.405,3.605a5.172,5.172,0,0,1-.822,2.807,5.2,5.2,0,0,0-8.762,0A5.2,5.2,0,0,1,1.455,0,5.7,5.7,0,0,0,5.2,1.4,5.7,5.7,0,0,0,8.95,0a5.166,5.166,0,0,1,1.455,3.605" transform="translate(48.863 54.695)" fill="#131856"/>
      <path id="Stroke_34" data-name="Stroke 34" d="M0,4.963A9.719,9.719,0,0,0,4.963,3.97,9.769,9.769,0,0,0,9.1,0" transform="translate(38.268 25.6)" fill="none" stroke="#262c7c" stroke-linecap="round" stroke-miterlimit="10" stroke-width="1.4"/>
      <path id="Stroke_37" data-name="Stroke 37" d="M0,0A14.226,14.226,0,0,0,3.97,3.639,14.251,14.251,0,0,0,9.595,5.625" transform="translate(59.112 24.938)" fill="none" stroke="#262c7c" stroke-linecap="round" stroke-miterlimit="10" stroke-width="1.4"/>
      <path id="Stroke_40" data-name="Stroke 40" d="M0,0A5.673,5.673,0,0,0,2.812,1.489a5.681,5.681,0,0,0,3.309-.331" transform="translate(58.616 34.698)" fill="none" stroke="#262c7c" stroke-linecap="round" stroke-miterlimit="10" stroke-width="1.4"/>
      <path id="Stroke_43" data-name="Stroke 43" d="M0,2.812a4.1,4.1,0,0,0,2.647-.165A4.271,4.271,0,0,0,4.963,0" transform="translate(41.08 33.706)" fill="none" stroke="#262c7c" stroke-linecap="round" stroke-miterlimit="10" stroke-width="1.4"/>
      <path id="Stroke_46" data-name="Stroke 46" d="M2.048,0C-.345,6.169-.667,11.43,1.221,13.069A4.953,4.953,0,0,0,3.7,14.227,4.515,4.515,0,0,0,6.679,13.4" transform="translate(49.289 35.194)" fill="none" stroke="#262c7c" stroke-linecap="round" stroke-miterlimit="10" stroke-width="1.4"/>
      <path id="Fill_49" data-name="Fill 49" d="M84.429,33.186c-28.2-.044-56.241,0-84.429,0C1.308,22.356,6.009,15.671,8.378,13.3c2.862-2.866,5.951-4.588,11.6-7.735,3.835-2.136,7.331-3.8,10.258-5.074a11.644,11.644,0,0,0,8.9,4.116A11.684,11.684,0,0,0,48.444,0a66.085,66.085,0,0,1,13.1,3.79C68.31,6.526,72.9,8.381,77.016,12.815c5.095,5.482,6.821,15.837,7.413,20.37" transform="translate(15.374 75.561)" fill="#262c7c"/>
      <path id="Stroke_52" data-name="Stroke 52" d="M0,1.611A20.089,20.089,0,0,0,10.312,3.867,20.146,20.146,0,0,0,21.107,0" transform="translate(45.665 81.447)" fill="none" stroke="#1b1464" stroke-linecap="round" stroke-miterlimit="10" stroke-width="8"/>
      <path id="Fill_55" data-name="Fill 55" d="M2.655,1.327A1.328,1.328,0,1,1,1.328,0,1.327,1.327,0,0,1,2.655,1.327" transform="translate(53.457 71.838)" fill="#eb0065"/>
      <path id="Stroke_58" data-name="Stroke 58" d="M6.23,3.115A3.115,3.115,0,1,1,3.115,0,3.115,3.115,0,0,1,6.23,3.115Z" transform="translate(51.669 70.051)" fill="none" stroke="#eb0065" stroke-miterlimit="10" stroke-width="1.4"/>
      <path id="Stroke_61" data-name="Stroke 61" d="M10.88,5.44A5.44,5.44,0,1,1,5.44,0,5.44,5.44,0,0,1,10.88,5.44Z" transform="translate(49.344 67.725)" fill="none" stroke="#eb0065" stroke-miterlimit="10" stroke-width="1.4"/>
      <path id="Stroke_64" data-name="Stroke 64" d="M15.306,7.653A7.653,7.653,0,1,1,7.653,0,7.653,7.653,0,0,1,15.306,7.653Z" transform="translate(47.131 65.512)" fill="none" stroke="#eb0065" stroke-miterlimit="10" stroke-width="1.4"/>
      <path id="Stroke_67" data-name="Stroke 67" d="M19.657,9.829A9.829,9.829,0,1,1,9.829,0,9.829,9.829,0,0,1,19.657,9.829Z" transform="translate(44.955 63.337)" fill="none" stroke="#eb0065" stroke-miterlimit="10" stroke-width="1.4"/>
      <path id="Fill_70" data-name="Fill 70" d="M7.019,0,13.27,12.826,0,13.489,30.578,32.133,15.9,17.547H26.43Z" transform="translate(0.939 72.515)" fill="#eb0065"/>
      <path id="Fill_73" data-name="Fill 73" d="M0,6.689l13.273,22.63L9.1,14.8l6.652,3.7L9.651,0,9.212,10.85Z" transform="translate(27.807 62.316)" fill="#eb0065"/>
      <path id="Fill_76" data-name="Fill 76" d="M4.187,17.5,23.147,0,17.225,13.385l13.05.652L0,31.8,15.137,17.5Z" transform="translate(77.918 61.108)" fill="#eb0065"/>
    </g>
  </g>
</svg>
