<svg xmlns="http://www.w3.org/2000/svg" width="50.407" height="50.407" viewBox="0 0 50.407 50.407">
  <g id="Group_17" data-name="Group 17" transform="translate(0.116 0.116)">
    <path id="Stroke_15_Copy" data-name="Stroke 15 Copy" d="M49.193,24.026a1.2,1.2,0,0,0-1.67-.753c-.395.171-.738.308-.738.308a5.335,5.335,0,0,1-1.964.573h-.2a1.314,1.314,0,0,1-1.3-1.2A18.8,18.8,0,0,0,42,17.578a1.311,1.311,0,0,1,.55-1.64l.245-.142a5.345,5.345,0,0,1,1.988-.485s.366-.054.793-.1a1.2,1.2,0,0,0,1.07-1.487,2.774,2.774,0,0,0-1.068-1.849,1.2,1.2,0,0,0-1.823.183c-.256.346-.485.636-.485.636a5.33,5.33,0,0,1-1.415,1.478l-.164.1a1.316,1.316,0,0,1-1.73-.39,18.579,18.579,0,0,0-3.838-3.983,1.311,1.311,0,0,1-.347-1.7l.144-.248a5.309,5.309,0,0,1,1.478-1.415s.29-.23.635-.485a1.2,1.2,0,0,0,.183-1.822,2.766,2.766,0,0,0-1.849-1.068,1.2,1.2,0,0,0-1.488,1.069c-.048.427-.1.793-.1.793a5.364,5.364,0,0,1-.486,1.988l-.1.172a1.313,1.313,0,0,1-1.692.528,18.591,18.591,0,0,0-5.312-1.544,1.312,1.312,0,0,1-1.149-1.3v-.28a5.335,5.335,0,0,1,.573-1.965s.137-.343.308-.738a1.2,1.2,0,0,0-.753-1.67,2.766,2.766,0,0,0-2.135,0,1.2,1.2,0,0,0-.753,1.67c.172.395.308.738.308.738a5.335,5.335,0,0,1,.573,1.965v.2a1.312,1.312,0,0,1-1.2,1.3,18.8,18.8,0,0,0-5.374,1.327,1.312,1.312,0,0,1-1.64-.55L15.8,6.616a5.331,5.331,0,0,1-.486-1.988s-.054-.366-.1-.793a1.2,1.2,0,0,0-1.488-1.069,2.774,2.774,0,0,0-1.849,1.068,1.2,1.2,0,0,0,.184,1.822c.346.257.635.485.635.485a5.352,5.352,0,0,1,1.478,1.415l.1.165a1.316,1.316,0,0,1-.391,1.73A18.6,18.6,0,0,0,9.891,13.29a1.311,1.311,0,0,1-1.7.346l-.248-.144a5.33,5.33,0,0,1-1.415-1.478s-.23-.29-.485-.635A1.2,1.2,0,0,0,4.224,11.2a2.77,2.77,0,0,0-1.068,1.849,1.2,1.2,0,0,0,1.069,1.487c.428.049.793.1.793.1a5.342,5.342,0,0,1,1.988.486l.173.1a1.311,1.311,0,0,1,.526,1.692,18.588,18.588,0,0,0-1.542,5.312,1.313,1.313,0,0,1-1.3,1.148h-.28A5.335,5.335,0,0,1,2.622,22.8s-.343-.136-.738-.307a1.2,1.2,0,0,0-1.67.753,2.768,2.768,0,0,0,0,2.136,1.2,1.2,0,0,0,1.67.753c.395-.171.738-.307.738-.307a5.335,5.335,0,0,1,1.965-.573h.2a1.312,1.312,0,0,1,1.3,1.2,18.857,18.857,0,0,0,1.327,5.375,1.311,1.311,0,0,1-.55,1.64l-.244.141A5.349,5.349,0,0,1,4.63,34.1s-.366.054-.794.1a1.2,1.2,0,0,0-1.069,1.488,2.775,2.775,0,0,0,1.068,1.849,1.2,1.2,0,0,0,1.823-.183c.256-.346.485-.635.485-.635a5.341,5.341,0,0,1,1.415-1.478l.166-.1a1.313,1.313,0,0,1,1.73.39,18.561,18.561,0,0,0,3.839,3.982,1.311,1.311,0,0,1,.346,1.7l-.143.249a5.349,5.349,0,0,1-1.478,1.414s-.29.23-.636.485a1.2,1.2,0,0,0-.183,1.823,2.769,2.769,0,0,0,1.849,1.067,1.2,1.2,0,0,0,1.487-1.069c.049-.427.1-.793.1-.793a5.312,5.312,0,0,1,.486-1.988l.1-.173a1.311,1.311,0,0,1,1.691-.527,18.587,18.587,0,0,0,5.313,1.543,1.313,1.313,0,0,1,1.148,1.3v.28a5.335,5.335,0,0,1-.573,1.965s-.137.343-.308.738a1.2,1.2,0,0,0,.753,1.67,2.776,2.776,0,0,0,2.135,0,1.2,1.2,0,0,0,.753-1.67c-.172-.395-.308-.738-.308-.738a5.335,5.335,0,0,1-.573-1.965v-.2a1.313,1.313,0,0,1,1.2-1.3A18.807,18.807,0,0,0,31.829,42a1.313,1.313,0,0,1,1.64.55l.141.246a5.342,5.342,0,0,1,.486,1.987s.054.366.1.793a1.2,1.2,0,0,0,1.487,1.069,2.762,2.762,0,0,0,1.849-1.068,1.2,1.2,0,0,0-.182-1.822c-.346-.256-.636-.485-.636-.485a5.319,5.319,0,0,1-1.478-1.415l-.1-.165a1.313,1.313,0,0,1,.39-1.73,18.561,18.561,0,0,0,3.982-3.839,1.312,1.312,0,0,1,1.7-.346l.249.144a5.341,5.341,0,0,1,1.415,1.478s.229.29.485.635a1.2,1.2,0,0,0,1.822.183,2.77,2.77,0,0,0,1.068-1.849,1.2,1.2,0,0,0-1.07-1.488c-.426-.048-.793-.1-.793-.1a5.334,5.334,0,0,1-1.988-.486l-.172-.1a1.311,1.311,0,0,1-.528-1.691,18.594,18.594,0,0,0,1.543-5.313,1.313,1.313,0,0,1,1.3-1.148h.28a5.335,5.335,0,0,1,1.964.573s.343.137.738.308a1.2,1.2,0,0,0,1.67-.753,2.776,2.776,0,0,0,0-2.135Z" transform="translate(0.384 0.384)" fill="#ffedeb"/>
    <path id="Stroke_1" data-name="Stroke 1" d="M8.359,4.179A4.179,4.179,0,1,1,4.179,0,4.18,4.18,0,0,1,8.359,4.179Z" transform="translate(14.639 13.072)" fill="none" stroke="#ff3e29" stroke-miterlimit="10" stroke-width="1"/>
    <path id="Stroke_3" data-name="Stroke 3" d="M5.58,2.789A2.79,2.79,0,1,1,2.79,0,2.789,2.789,0,0,1,5.58,2.789Z" transform="translate(29.174 31.839)" fill="none" stroke="#ff3e29" stroke-miterlimit="10" stroke-width="1"/>
    <path id="Stroke_5" data-name="Stroke 5" d="M5.579,2.789A2.789,2.789,0,1,1,2.789,0,2.789,2.789,0,0,1,5.579,2.789Z" transform="translate(11.85 25.663)" fill="none" stroke="#ff3e29" stroke-miterlimit="10" stroke-width="1"/>
    <path id="Stroke_7" data-name="Stroke 7" d="M5.58,2.789A2.79,2.79,0,1,1,2.789,0,2.79,2.79,0,0,1,5.58,2.789Z" transform="translate(22.998 25.663)" fill="none" stroke="#ff3e29" stroke-miterlimit="10" stroke-width="1"/>
    <path id="Stroke_9" data-name="Stroke 9" d="M4.293,2.147A2.147,2.147,0,1,1,2.147,0,2.147,2.147,0,0,1,4.293,2.147Z" transform="translate(34.753 24.565)" fill="none" stroke="#ff3e29" stroke-miterlimit="10" stroke-width="1"/>
    <path id="Stroke_11" data-name="Stroke 11" d="M3.146,1.572A1.573,1.573,0,1,1,1.573,0,1.573,1.573,0,0,1,3.146,1.572Z" transform="translate(22.941 36.072)" fill="none" stroke="#ff3e29" stroke-miterlimit="10" stroke-width="1"/>
    <path id="Stroke_13" data-name="Stroke 13" d="M3.145,1.572A1.572,1.572,0,1,1,1.572,0,1.573,1.573,0,0,1,3.145,1.572Z" transform="translate(29.703 16.328)" fill="none" stroke="#ff3e29" stroke-miterlimit="10" stroke-width="1"/>
    <path id="Stroke_15" data-name="Stroke 15" d="M49.193,24.026a1.2,1.2,0,0,0-1.67-.753c-.395.171-.738.308-.738.308a5.335,5.335,0,0,1-1.964.573h-.2a1.314,1.314,0,0,1-1.3-1.2A18.8,18.8,0,0,0,42,17.578a1.311,1.311,0,0,1,.55-1.64l.245-.142a5.345,5.345,0,0,1,1.988-.485s.366-.054.793-.1a1.2,1.2,0,0,0,1.07-1.487,2.774,2.774,0,0,0-1.068-1.849,1.2,1.2,0,0,0-1.823.183c-.256.346-.485.636-.485.636a5.33,5.33,0,0,1-1.415,1.478l-.164.1a1.316,1.316,0,0,1-1.73-.39,18.579,18.579,0,0,0-3.838-3.983,1.311,1.311,0,0,1-.347-1.7l.144-.248a5.309,5.309,0,0,1,1.478-1.415s.29-.23.635-.485a1.2,1.2,0,0,0,.183-1.822,2.766,2.766,0,0,0-1.849-1.068,1.2,1.2,0,0,0-1.488,1.069c-.048.427-.1.793-.1.793a5.364,5.364,0,0,1-.486,1.988l-.1.172a1.313,1.313,0,0,1-1.692.528,18.591,18.591,0,0,0-5.312-1.544,1.312,1.312,0,0,1-1.149-1.3v-.28a5.335,5.335,0,0,1,.573-1.965s.137-.343.308-.738a1.2,1.2,0,0,0-.753-1.67,2.766,2.766,0,0,0-2.135,0,1.2,1.2,0,0,0-.753,1.67c.172.395.308.738.308.738a5.335,5.335,0,0,1,.573,1.965v.2a1.312,1.312,0,0,1-1.2,1.3,18.8,18.8,0,0,0-5.374,1.327,1.312,1.312,0,0,1-1.64-.55L15.8,6.616a5.331,5.331,0,0,1-.486-1.988s-.054-.366-.1-.793a1.2,1.2,0,0,0-1.488-1.069,2.774,2.774,0,0,0-1.849,1.068,1.2,1.2,0,0,0,.184,1.822c.346.257.635.485.635.485a5.352,5.352,0,0,1,1.478,1.415l.1.165a1.316,1.316,0,0,1-.391,1.73A18.6,18.6,0,0,0,9.891,13.29a1.311,1.311,0,0,1-1.7.346l-.248-.144a5.33,5.33,0,0,1-1.415-1.478s-.23-.29-.485-.635A1.2,1.2,0,0,0,4.224,11.2a2.77,2.77,0,0,0-1.068,1.849,1.2,1.2,0,0,0,1.069,1.487c.428.049.793.1.793.1a5.342,5.342,0,0,1,1.988.486l.173.1a1.311,1.311,0,0,1,.526,1.692,18.588,18.588,0,0,0-1.542,5.312,1.313,1.313,0,0,1-1.3,1.148h-.28A5.335,5.335,0,0,1,2.622,22.8s-.343-.136-.738-.307a1.2,1.2,0,0,0-1.67.753,2.768,2.768,0,0,0,0,2.136,1.2,1.2,0,0,0,1.67.753c.395-.171.738-.307.738-.307a5.335,5.335,0,0,1,1.965-.573h.2a1.312,1.312,0,0,1,1.3,1.2,18.857,18.857,0,0,0,1.327,5.375,1.311,1.311,0,0,1-.55,1.64l-.244.141A5.349,5.349,0,0,1,4.63,34.1s-.366.054-.794.1a1.2,1.2,0,0,0-1.069,1.488,2.775,2.775,0,0,0,1.068,1.849,1.2,1.2,0,0,0,1.823-.183c.256-.346.485-.635.485-.635a5.341,5.341,0,0,1,1.415-1.478l.166-.1a1.313,1.313,0,0,1,1.73.39,18.561,18.561,0,0,0,3.839,3.982,1.311,1.311,0,0,1,.346,1.7l-.143.249a5.349,5.349,0,0,1-1.478,1.414s-.29.23-.636.485a1.2,1.2,0,0,0-.183,1.823,2.769,2.769,0,0,0,1.849,1.067,1.2,1.2,0,0,0,1.487-1.069c.049-.427.1-.793.1-.793a5.312,5.312,0,0,1,.486-1.988l.1-.173a1.311,1.311,0,0,1,1.691-.527,18.587,18.587,0,0,0,5.313,1.543,1.313,1.313,0,0,1,1.148,1.3v.28a5.335,5.335,0,0,1-.573,1.965s-.137.343-.308.738a1.2,1.2,0,0,0,.753,1.67,2.776,2.776,0,0,0,2.135,0,1.2,1.2,0,0,0,.753-1.67c-.172-.395-.308-.738-.308-.738a5.335,5.335,0,0,1-.573-1.965v-.2a1.313,1.313,0,0,1,1.2-1.3A18.807,18.807,0,0,0,31.829,42a1.313,1.313,0,0,1,1.64.55l.141.246a5.342,5.342,0,0,1,.486,1.987s.054.366.1.793a1.2,1.2,0,0,0,1.487,1.069,2.762,2.762,0,0,0,1.849-1.068,1.2,1.2,0,0,0-.182-1.822c-.346-.256-.636-.485-.636-.485a5.319,5.319,0,0,1-1.478-1.415l-.1-.165a1.313,1.313,0,0,1,.39-1.73,18.561,18.561,0,0,0,3.982-3.839,1.312,1.312,0,0,1,1.7-.346l.249.144a5.341,5.341,0,0,1,1.415,1.478s.229.29.485.635a1.2,1.2,0,0,0,1.822.183,2.77,2.77,0,0,0,1.068-1.849,1.2,1.2,0,0,0-1.07-1.488c-.426-.048-.793-.1-.793-.1a5.334,5.334,0,0,1-1.988-.486l-.172-.1a1.311,1.311,0,0,1-.528-1.691,18.594,18.594,0,0,0,1.543-5.313,1.313,1.313,0,0,1,1.3-1.148h.28a5.335,5.335,0,0,1,1.964.573s.343.137.738.308a1.2,1.2,0,0,0,1.67-.753,2.776,2.776,0,0,0,0-2.135Z" transform="translate(0.384 0.384)" fill="none" stroke="#ff3e29" stroke-miterlimit="10" stroke-width="1"/>
  </g>
</svg>
