<svg xmlns="http://www.w3.org/2000/svg" width="82" height="82" viewBox="0 0 82 82">
  <g id="Group_17_Copy" data-name="Group 17 Copy" transform="translate(0.5 0.5)" opacity="0.15">
    <path id="Stroke_1" data-name="Stroke 1" d="M13.829,6.915A6.915,6.915,0,1,1,6.915,0,6.916,6.916,0,0,1,13.829,6.915Z" transform="translate(23.707 20.744)" fill="none" stroke="#fff" stroke-miterlimit="10" stroke-width="1"/>
    <path id="Stroke_3" data-name="Stroke 3" d="M8.89,4.445A4.445,4.445,0,1,1,4.446,0,4.445,4.445,0,0,1,8.89,4.445Z" transform="translate(47.415 51.366)" fill="none" stroke="#fff" stroke-miterlimit="10" stroke-width="1"/>
    <path id="Stroke_5" data-name="Stroke 5" d="M8.89,4.445A4.445,4.445,0,1,1,4.445,0,4.445,4.445,0,0,1,8.89,4.445Z" transform="translate(19.756 41.488)" fill="none" stroke="#fff" stroke-miterlimit="10" stroke-width="1"/>
    <path id="Stroke_7" data-name="Stroke 7" d="M8.89,4.445A4.445,4.445,0,1,1,4.445,0,4.446,4.446,0,0,1,8.89,4.445Z" transform="translate(37.537 41.488)" fill="none" stroke="#fff" stroke-miterlimit="10" stroke-width="1"/>
    <path id="Stroke_9" data-name="Stroke 9" d="M6.915,3.457A3.457,3.457,0,1,1,3.457,0,3.458,3.458,0,0,1,6.915,3.457Z" transform="translate(56.305 39.512)" fill="none" stroke="#fff" stroke-miterlimit="10" stroke-width="1"/>
    <path id="Stroke_11" data-name="Stroke 11" d="M4.939,2.469A2.47,2.47,0,1,1,2.47,0,2.47,2.47,0,0,1,4.939,2.469Z" transform="translate(37.537 59.268)" fill="none" stroke="#fff" stroke-miterlimit="10" stroke-width="1"/>
    <path id="Stroke_13" data-name="Stroke 13" d="M4.939,2.469A2.47,2.47,0,1,1,2.469,0,2.47,2.47,0,0,1,4.939,2.469Z" transform="translate(48.402 26.671)" fill="none" stroke="#fff" stroke-miterlimit="10" stroke-width="1"/>
    <path id="Stroke_15" data-name="Stroke 15" d="M80.65,39.389a1.963,1.963,0,0,0-2.737-1.235c-.647.281-1.21.5-1.21.5a8.747,8.747,0,0,1-3.219.939h-.321a2.155,2.155,0,0,1-2.137-1.968,30.829,30.829,0,0,0-2.174-8.812,2.149,2.149,0,0,1,.9-2.688l.4-.233a8.762,8.762,0,0,1,3.259-.8s.6-.088,1.3-.169a1.963,1.963,0,0,0,1.754-2.438,4.548,4.548,0,0,0-1.75-3.032,1.964,1.964,0,0,0-2.989.3c-.419.567-.8,1.043-.8,1.043a8.738,8.738,0,0,1-2.319,2.424l-.269.156a2.157,2.157,0,0,1-2.837-.64,30.459,30.459,0,0,0-6.293-6.53,2.15,2.15,0,0,1-.569-2.781l.237-.407A8.7,8.7,0,0,1,61.3,10.709s.475-.376,1.041-.8a1.962,1.962,0,0,0,.3-2.988,4.535,4.535,0,0,0-3.032-1.75,1.963,1.963,0,0,0-2.439,1.753c-.079.7-.166,1.3-.166,1.3a8.794,8.794,0,0,1-.8,3.26l-.164.282a2.152,2.152,0,0,1-2.774.865A30.479,30.479,0,0,0,44.564,10.1a2.151,2.151,0,0,1-1.884-2.125V7.519A8.746,8.746,0,0,1,43.62,4.3s.224-.563.5-1.21A1.962,1.962,0,0,0,42.89.351a4.535,4.535,0,0,0-3.5,0,1.963,1.963,0,0,0-1.235,2.737c.282.647.5,1.21.5,1.21A8.746,8.746,0,0,1,39.6,7.519v.32a2.151,2.151,0,0,1-1.968,2.135,30.823,30.823,0,0,0-8.811,2.176,2.151,2.151,0,0,1-2.689-.9l-.232-.4a8.739,8.739,0,0,1-.8-3.259s-.088-.6-.167-1.3a1.962,1.962,0,0,0-2.439-1.753,4.548,4.548,0,0,0-3.032,1.75,1.963,1.963,0,0,0,.3,2.988c.567.421,1.041.8,1.041.8a8.774,8.774,0,0,1,2.424,2.319l.157.271a2.158,2.158,0,0,1-.641,2.837,30.488,30.488,0,0,0-6.53,6.293,2.149,2.149,0,0,1-2.781.568l-.407-.235A8.738,8.738,0,0,1,10.709,19.7s-.376-.475-.8-1.041a1.962,1.962,0,0,0-2.988-.3,4.541,4.541,0,0,0-1.75,3.032,1.962,1.962,0,0,0,1.753,2.438c.7.081,1.3.167,1.3.167a8.758,8.758,0,0,1,3.259.8l.283.164a2.15,2.15,0,0,1,.862,2.774A30.474,30.474,0,0,0,10.1,36.437a2.152,2.152,0,0,1-2.127,1.882H7.519A8.746,8.746,0,0,1,4.3,37.38s-.563-.223-1.21-.5A1.962,1.962,0,0,0,.351,38.11a4.538,4.538,0,0,0,0,3.5,1.962,1.962,0,0,0,2.737,1.234c.647-.281,1.21-.5,1.21-.5A8.746,8.746,0,0,1,7.519,41.4H7.84a2.151,2.151,0,0,1,2.134,1.967,30.915,30.915,0,0,0,2.176,8.812,2.15,2.15,0,0,1-.9,2.689l-.4.232a8.769,8.769,0,0,1-3.259.8s-.6.088-1.3.167a1.964,1.964,0,0,0-1.753,2.439,4.549,4.549,0,0,0,1.75,3.031,1.963,1.963,0,0,0,2.989-.3c.419-.567.794-1.041.794-1.041a8.756,8.756,0,0,1,2.319-2.424l.272-.156a2.153,2.153,0,0,1,2.835.64,30.429,30.429,0,0,0,6.294,6.528,2.149,2.149,0,0,1,.567,2.781l-.234.408A8.769,8.769,0,0,1,19.7,70.291s-.476.376-1.043.8a1.964,1.964,0,0,0-.3,2.989,4.54,4.54,0,0,0,3.032,1.749,1.961,1.961,0,0,0,2.438-1.753c.081-.7.169-1.3.169-1.3a8.709,8.709,0,0,1,.8-3.259l.164-.283a2.15,2.15,0,0,1,2.773-.864,30.473,30.473,0,0,0,8.71,2.53,2.152,2.152,0,0,1,1.882,2.127v.458a8.746,8.746,0,0,1-.939,3.221s-.224.563-.5,1.21a1.962,1.962,0,0,0,1.235,2.737,4.55,4.55,0,0,0,3.5,0,1.962,1.962,0,0,0,1.235-2.737c-.282-.647-.5-1.21-.5-1.21a8.746,8.746,0,0,1-.939-3.221v-.321a2.153,2.153,0,0,1,1.968-2.135,30.833,30.833,0,0,0,8.811-2.176,2.152,2.152,0,0,1,2.689.9l.232.4a8.757,8.757,0,0,1,.8,3.257s.088.6.169,1.3a1.961,1.961,0,0,0,2.438,1.753,4.529,4.529,0,0,0,3.031-1.75,1.962,1.962,0,0,0-.3-2.988c-.567-.419-1.043-.8-1.043-.8a8.72,8.72,0,0,1-2.424-2.319l-.156-.271a2.153,2.153,0,0,1,.64-2.835,30.429,30.429,0,0,0,6.528-6.294,2.151,2.151,0,0,1,2.781-.568l.408.235A8.756,8.756,0,0,1,70.293,61.3s.375.476.8,1.041a1.961,1.961,0,0,0,2.988.3,4.542,4.542,0,0,0,1.75-3.031,1.963,1.963,0,0,0-1.754-2.439c-.7-.079-1.3-.167-1.3-.167a8.745,8.745,0,0,1-3.259-.8l-.282-.164a2.149,2.149,0,0,1-.865-2.773,30.484,30.484,0,0,0,2.53-8.71,2.152,2.152,0,0,1,2.127-1.882h.46a8.747,8.747,0,0,1,3.219.939s.563.224,1.21.5A1.964,1.964,0,0,0,80.65,42.89a4.55,4.55,0,0,0,0-3.5Z" fill="none" stroke="#fff" stroke-miterlimit="10" stroke-width="1"/>
  </g>
</svg>
